<?xml version="1.0" standalone="no"?>
<!DOCTYPE svg PUBLIC "-//W3C//DTD SVG 20010904//EN"
 "http://www.w3.org/TR/2001/REC-SVG-20010904/DTD/svg10.dtd">
<svg version="1.0" xmlns="http://www.w3.org/2000/svg"
 width="761.000000pt" height="851.000000pt" viewBox="0 0 761.000000 851.000000"
 preserveAspectRatio="xMidYMid meet">

<g transform="translate(0.000000,851.000000) scale(0.100000,-0.100000)"
fill="#000000" stroke="none">
<path d="M3880 8431 c0 -5 -10 -12 -22 -14 -19 -3 -17 -5 7 -6 17 -1 44 -8 60
-15 30 -14 30 -14 -14 -8 -30 3 -46 1 -53 -9 -7 -11 -11 -11 -15 -1 -7 17
-193 16 -236 -2 -18 -7 -43 -26 -57 -41 l-25 -27 39 16 c51 21 72 20 96 -4 15
-15 20 -16 20 -5 0 18 -31 35 -67 35 -40 1 -10 16 48 25 45 7 46 6 72 -34 15
-23 32 -41 37 -41 13 0 32 39 26 53 -2 7 -5 5 -5 -5 -2 -28 -20 -31 -41 -6
-28 34 -25 38 30 38 59 0 60 -5 20 -79 l-28 -53 -37 51 c-20 28 -39 51 -41 51
-7 0 25 -58 36 -65 24 -15 7 -24 -20 -10 -34 18 -40 18 -40 5 0 -5 9 -10 21
-10 11 0 33 -13 49 -28 l28 -29 39 74 c38 73 38 73 78 71 37 -1 37 -2 8 -5
-46 -6 -41 -23 6 -23 22 0 43 -4 46 -10 4 -6 -8 -10 -29 -10 -56 0 -79 -15
-108 -69 -37 -67 -35 -77 2 -21 30 46 79 80 115 80 13 0 5 -7 -22 -21 -24 -12
-43 -28 -43 -37 0 -12 5 -11 23 6 15 14 35 22 58 21 l34 -1 -29 -8 c-51 -16
-139 -117 -128 -148 6 -19 22 -14 22 7 0 34 19 33 22 -1 2 -17 9 -33 16 -36
11 -3 12 0 3 16 -18 33 -13 60 17 93 25 28 33 31 58 24 l29 -8 -34 -7 c-35 -8
-47 -20 -57 -58 -12 -45 52 -84 75 -44 6 9 11 12 11 5 0 -6 -9 -18 -20 -26
-16 -11 -61 -14 -208 -13 -103 0 -175 2 -160 4 29 3 85 61 71 71 -5 3 -16 18
-26 33 -12 20 -29 30 -57 34 -48 8 -53 24 -7 24 38 -1 61 -16 82 -56 12 -23
15 -25 15 -9 -1 11 -6 27 -13 35 -21 27 -74 60 -96 60 -28 0 -26 14 4 30 14 7
23 15 21 18 -3 2 -22 -6 -44 -18 -45 -25 -52 -47 -52 -161 0 -46 8 -88 26
-140 19 -53 28 -102 32 -171 2 -54 7 -98 11 -98 3 0 31 7 61 15 120 33 183 36
254 15 36 -11 68 -25 71 -30 4 -6 -5 -5 -22 1 -15 6 -49 14 -75 18 l-47 8 31
-36 c20 -23 50 -42 82 -53 l51 -18 -47 6 c-44 5 -48 3 -48 -16 0 -12 5 -18 10
-15 12 7 13 -5 2 -20 -4 -6 -24 -25 -45 -43 -22 -19 -31 -32 -22 -32 8 0 20 9
27 20 7 11 22 20 33 20 12 0 27 6 34 13 11 10 13 9 9 -3 -3 -8 -18 -18 -34
-21 -27 -6 -26 -7 11 -9 l40 -2 -50 -12 c-27 -7 -63 -19 -79 -25 -24 -10 -36
-9 -65 6 -20 9 -54 20 -76 24 -32 6 -26 7 25 5 40 -3 57 -1 45 4 -11 5 -47 9
-80 10 -46 0 -56 3 -42 11 11 6 17 22 17 44 0 26 -4 35 -17 36 -11 0 -13 3 -5
6 6 2 10 8 7 13 -3 4 15 7 40 7 26 -1 40 2 35 7 -6 6 -3 15 8 23 15 13 14 14
-10 9 -75 -16 -78 -15 -23 4 33 11 64 26 70 32 7 8 5 9 -10 3 -11 -4 -49 -14
-85 -23 -36 -8 -71 -16 -78 -18 -16 -5 -15 -162 4 -347 7 -70 14 -189 16 -263
3 -144 5 -138 -48 -169 -16 -10 -16 -12 0 -28 21 -21 18 -22 -89 -37 -362 -50
-679 -154 -930 -304 -363 -216 -579 -400 -842 -716 -146 -174 -231 -306 -332
-515 -158 -323 -187 -404 -236 -663 -40 -208 -45 -230 -39 -152 3 36 7 79 10
95 2 17 6 71 10 120 3 50 9 99 14 110 5 11 16 54 26 95 9 41 26 90 36 108 10
18 18 39 18 47 0 8 11 38 24 67 49 110 64 144 71 168 8 25 51 103 112 198 18
28 31 52 28 52 -3 0 -1 6 5 13 7 6 31 46 56 87 24 41 52 86 61 100 17 25 17
25 -3 5 -22 -24 -84 -113 -84 -121 0 -4 -13 -23 -28 -43 -57 -73 -176 -290
-187 -341 -4 -17 -10 -30 -15 -30 -4 0 -11 -16 -14 -35 -4 -19 -11 -35 -16
-35 -6 0 -10 -8 -10 -17 0 -10 -7 -31 -15 -47 -8 -15 -15 -33 -15 -40 0 -6 -6
-23 -14 -38 -8 -15 -17 -42 -21 -60 -3 -18 -10 -42 -15 -53 -40 -94 -113 -487
-128 -687 l-7 -97 158 -103 c87 -56 162 -107 165 -113 4 -5 24 -19 45 -29 62
-32 34 -31 -70 3 -69 21 -126 49 -189 90 -92 59 -116 69 -190 78 -36 4 -45 1
-72 -27 -18 -17 -32 -38 -32 -46 0 -9 -4 -12 -10 -9 -5 3 -10 24 -10 46 0 33
-3 40 -17 37 -39 -7 -58 -102 -26 -133 12 -12 25 -15 47 -10 69 15 102 16 130
6 28 -11 28 -12 10 -26 -18 -14 -17 -14 11 -15 17 -1 23 -4 15 -6 -8 -3 -43
-19 -77 -36 -114 -55 -175 -155 -172 -284 l2 -59 9 75 c10 84 32 140 72 188
31 36 98 78 146 92 l33 9 -7 -37 c-6 -39 -29 -64 -51 -56 -7 3 -37 -17 -67
-45 -54 -49 -102 -129 -113 -186 -3 -16 3 -8 13 19 10 28 23 51 29 53 6 2 28
-3 48 -11 23 -10 68 -16 116 -16 55 0 82 -4 92 -15 19 -18 72 -177 103 -304
26 -109 62 -224 104 -326 84 -204 85 -222 29 -253 -17 -9 -47 -29 -68 -44 -96
-73 -108 -78 -188 -82 -61 -3 -95 1 -162 21 -125 36 -452 144 -481 160 -14 7
-34 13 -45 13 -11 0 -31 4 -45 8 -22 6 -19 8 20 13 40 5 37 6 -25 7 -107 2
-130 -27 -77 -97 74 -98 92 -141 92 -218 0 -76 -11 -98 -99 -203 -26 -30 -62
-75 -81 -100 -19 -25 -39 -50 -45 -57 -5 -7 -16 -19 -23 -27 -6 -8 -12 -35
-12 -59 l0 -45 123 -5 c129 -5 167 -14 415 -101 195 -68 255 -80 392 -80 123
0 128 1 285 52 185 60 268 79 412 93 114 10 123 8 184 -46 43 -39 154 -115
167 -115 20 0 141 -69 215 -123 43 -31 114 -73 158 -93 43 -21 79 -41 79 -45
0 -3 34 -17 76 -30 41 -13 86 -33 99 -45 13 -12 26 -20 29 -17 3 3 22 -5 42
-17 31 -20 66 -32 184 -65 36 -10 139 -48 178 -66 24 -11 48 -16 55 -13 7 4 8
3 4 -1 -10 -11 47 -29 193 -61 159 -34 156 -33 133 -49 -17 -13 -16 -14 7 -19
14 -2 41 -7 60 -10 19 -2 44 -8 54 -12 18 -7 19 -3 12 62 -18 180 -25 562 -26
1269 -1 877 -16 2487 -26 2738 l-7 168 29 -7 c16 -4 34 -10 39 -13 6 -3 19 -6
30 -6 20 0 20 -9 26 -405 4 -223 7 -976 9 -1675 2 -842 6 -1241 12 -1185 9 86
3 2521 -8 2998 -4 175 -2 243 5 232 7 -9 11 -10 11 -3 0 8 17 11 50 11 46 -1
50 -3 52 -27 0 -14 0 -33 0 -41 -1 -8 -2 -41 -3 -72 0 -32 -4 -58 -10 -58 -5
0 -9 5 -9 12 0 6 -3 8 -7 5 -3 -4 -1 -17 6 -30 7 -13 11 -41 9 -63 l-3 -39
-19 40 c-11 22 -21 34 -23 28 -3 -7 8 -32 24 -55 37 -55 46 -78 30 -78 -7 0
-4 -7 6 -14 25 -19 31 -69 8 -62 -12 5 -12 3 2 -8 18 -14 19 -70 8 -1863 -12
-1968 -12 -2285 0 -1878 4 132 10 938 13 1790 3 853 8 1652 9 1776 l4 226 46
65 c53 73 56 87 27 113 -24 21 -27 9 -4 -16 14 -16 14 -20 0 -46 -8 -15 -29
-44 -46 -63 -29 -33 -31 -34 -28 -10 2 14 10 31 18 38 13 10 13 11 -2 6 -14
-5 -18 -1 -18 16 0 11 5 18 10 15 6 -3 10 -2 10 4 0 5 -4 13 -10 16 -14 9 -12
33 7 77 16 37 33 50 33 26 0 -6 3 -9 6 -6 3 3 -6 28 -21 55 -17 32 -24 39 -21
22 3 -15 -2 -44 -11 -65 -9 -22 -19 -68 -23 -104 l-7 -65 -1 85 c0 47 3 125 7
174 6 84 7 89 23 73 16 -16 17 -16 23 2 9 30 119 90 192 105 l65 13 -6 -66
c-15 -161 -58 -2151 -71 -3296 -5 -494 -11 -724 -21 -879 -6 -84 -5 -89 11
-73 10 11 32 17 58 17 49 0 167 35 146 43 -22 9 3 22 80 42 36 10 69 22 72 27
6 10 181 58 210 58 10 0 19 5 19 10 0 6 7 10 16 10 26 0 236 76 304 109 34 17
68 31 75 31 7 0 18 6 24 14 7 8 25 18 41 21 16 3 34 13 41 21 15 19 74 50 65
35 -12 -19 5 -12 91 34 45 25 89 45 98 45 9 0 12 6 9 15 -4 8 -2 15 3 15 9 0
24 11 71 50 9 8 12 5 12 -13 0 -23 -31 -57 -63 -70 -9 -3 -17 -12 -17 -19 0
-7 -14 -21 -31 -31 -18 -10 -29 -20 -26 -23 3 -3 30 10 59 29 29 19 61 38 70
43 9 5 61 48 115 96 269 238 242 218 301 218 52 0 232 -24 417 -56 50 -8 113
-25 140 -38 98 -45 214 -62 321 -46 107 15 198 41 366 104 203 76 275 90 414
82 l113 -7 -11 32 c-22 63 -87 173 -136 229 -161 187 -172 296 -45 473 23 33
32 55 28 68 -6 19 -12 20 -73 13 -77 -8 -148 -28 -392 -112 -96 -33 -209 -69
-252 -81 -79 -22 -143 -28 -134 -12 5 7 -86 27 -106 23 -5 -1 -8 2 -8 6 0 5
-6 9 -13 9 -21 0 -96 36 -91 44 2 4 -14 18 -36 30 -49 28 -48 31 10 159 91
198 157 407 195 615 18 95 38 145 58 145 6 0 -3 12 -22 27 -26 20 -30 28 -19
34 8 5 32 4 52 -2 30 -8 42 -7 62 6 18 11 29 13 43 6 43 -24 33 -59 -20 -67
-21 -4 -39 -11 -39 -16 0 -6 16 -8 38 -4 134 20 120 23 143 -25 l20 -44 -6 43
c-7 54 -37 118 -54 114 -7 -1 -10 1 -7 6 8 14 -54 67 -110 95 -47 24 -73 52
-59 65 3 3 5 1 5 -5 0 -8 8 -8 25 0 14 7 25 15 25 20 0 4 7 7 16 7 22 0 12 24
-12 29 -10 2 -25 8 -32 14 -11 8 -4 14 28 23 48 14 98 15 106 2 7 -11 61 -10
84 2 26 14 33 54 16 95 -14 34 -36 48 -36 23 0 -6 -7 -3 -15 8 -14 18 -15 17
-9 -10 5 -19 2 -31 -7 -37 -20 -12 -29 -11 -29 5 0 7 -9 25 -20 39 -17 21 -32
27 -84 32 -56 6 -71 4 -118 -17 -51 -24 -114 -63 -208 -129 -40 -28 -170 -85
-170 -75 0 3 27 19 59 36 33 18 82 51 110 75 27 23 95 71 151 106 l100 64 -5
110 c-11 192 -45 450 -66 487 -5 10 -9 28 -9 41 0 33 -83 300 -116 374 -8 17
-14 33 -14 36 0 33 -200 415 -222 425 -5 2 -8 9 -8 16 0 13 -124 196 -156 231
-11 11 -32 38 -48 60 -56 76 -351 363 -454 440 -7 6 -19 16 -27 23 -7 6 -16
12 -20 12 -6 0 -19 10 -59 45 -25 22 -53 42 -76 52 -8 4 -17 9 -20 12 -8 10
-82 54 -125 76 -22 11 -42 22 -45 25 -12 12 -212 110 -225 110 -9 0 -23 4 -33
10 -9 5 -35 16 -57 25 -22 9 -48 21 -57 26 -10 5 -26 9 -35 8 -16 0 -15 -2 2
-9 32 -14 100 -43 105 -45 32 -8 50 -18 50 -26 0 -5 9 -9 20 -9 27 0 172 -72
199 -99 11 -11 26 -21 31 -21 6 0 28 -11 49 -24 21 -14 41 -22 44 -20 3 3 10
-4 17 -15 6 -12 17 -21 25 -21 8 0 15 -7 15 -15 0 -9 6 -15 13 -13 7 2 36 -14
64 -35 28 -20 56 -37 62 -37 6 0 11 -7 11 -15 0 -8 6 -15 13 -15 20 0 122 -87
236 -201 121 -122 234 -245 240 -262 4 -10 76 -105 105 -137 18 -20 106 -157
106 -165 0 -3 11 -21 24 -38 13 -18 58 -104 100 -192 42 -88 83 -172 91 -188
8 -15 12 -34 9 -42 -4 -9 0 -15 8 -15 17 0 53 -104 42 -123 -4 -6 -3 -8 1 -4
29 25 119 -424 114 -565 -2 -35 3 -63 11 -73 11 -13 10 -15 -4 -9 -18 7 -22
22 -30 112 -11 126 -105 494 -171 667 -39 104 -100 226 -178 355 -39 63 -77
129 -85 145 -9 17 -27 44 -41 61 -14 18 -51 64 -81 104 -89 118 -283 330 -361
395 -39 33 -93 78 -119 100 -213 180 -501 338 -805 440 -182 61 -329 95 -529
124 -122 17 -180 31 -133 31 9 0 28 11 43 25 l27 25 -35 0 c-69 0 -71 5 -58
190 6 91 15 199 21 240 6 41 13 180 15 308 l5 234 40 76 c41 77 41 77 37 167
-7 140 -44 202 -151 259 -54 29 -57 30 -57 17z m-357 -191 c-3 -12 -8 -19 -11
-16 -5 6 5 36 12 36 2 0 2 -9 -1 -20z m247 -2 c0 -6 -6 -5 -15 2 -8 7 -15 14
-15 16 0 2 7 1 15 -2 8 -4 15 -11 15 -16z m-156 -69 c33 -26 31 -55 -4 -77
l-25 -16 23 25 c27 31 28 44 1 63 -15 10 -28 12 -45 6 -24 -10 -35 4 -11 13
23 10 34 7 61 -14z m1 -40 c-4 -5 -12 -9 -18 -8 -9 0 -8 2 1 6 6 2 9 10 6 15
-4 7 -2 8 5 4 6 -4 9 -12 6 -17z m255 -89 c46 -6 35 -7 -66 -9 -67 0 -150 -4
-185 -7 -79 -8 -74 3 7 15 74 11 172 11 244 1z m103 -17 c-7 -2 -21 -2 -30 0
-10 3 -4 5 12 5 17 0 24 -2 18 -5z m-240 -103 c-18 -11 -33 -24 -33 -29 0 -5
-9 -7 -19 -4 -19 5 -19 6 -3 23 16 17 39 26 72 29 8 0 0 -8 -17 -19z m-8 -78
c-3 -3 -11 0 -18 7 -9 10 -8 11 6 5 10 -3 15 -9 12 -12z m40 -20 c-3 -3 -11 0
-18 7 -9 10 -8 11 6 5 10 -3 15 -9 12 -12z m172 -206 c0 -8 -6 -12 -15 -9 -11
5 -11 7 0 14 7 5 13 9 14 9 0 0 1 -6 1 -14z m-317 -18 c0 -19 -2 -20 -10 -8
-13 19 -13 30 0 30 6 0 10 -10 10 -22z m127 -134 c-3 -3 -12 -4 -19 -1 -8 3
-5 6 6 6 11 1 17 -2 13 -5z m43 -8 c0 -19 -31 -29 -44 -16 -8 8 -6 9 7 5 12
-5 17 -2 17 9 0 9 5 16 10 16 6 0 10 -6 10 -14z m-65 -52 c-10 -7 -23 -10 -29
-7 -6 4 0 10 14 14 16 4 19 7 8 8 -10 1 -18 6 -18 11 0 7 8 7 22 -1 21 -11 21
-12 3 -25z m95 12 c0 -2 -11 -6 -25 -8 -13 -3 -22 -1 -19 3 5 9 44 13 44 5z
m-40 -51 c18 -20 21 -27 11 -39 -10 -11 -9 -15 5 -18 15 -3 14 -7 -8 -33 -22
-25 -27 -27 -39 -15 -8 8 -14 21 -15 28 -3 39 -5 43 -16 36 -18 -12 3 19 25
35 15 11 16 15 6 22 -8 5 -9 9 -3 9 6 0 21 -11 34 -25z m-60 -110 c13 -14 21
-25 18 -25 -2 0 -15 11 -28 25 -13 14 -21 25 -18 25 2 0 15 -11 28 -25z m92
-7 c-8 -8 -8 -17 -1 -30 9 -18 8 -18 -10 -8 -12 6 -21 14 -21 18 0 11 22 32
34 32 6 0 5 -5 -2 -12z m-15 -64 c15 -14 22 -23 15 -19 -9 5 -15 -1 -19 -14
-3 -11 -9 -18 -14 -15 -5 3 -9 -6 -9 -20 0 -14 -4 -26 -8 -26 -14 0 -56 49
-49 57 4 3 7 1 7 -5 0 -25 16 -11 18 16 1 15 7 29 12 30 6 2 8 8 4 13 -11 19
16 8 43 -17z m-67 -3 c0 -5 -10 -11 -22 -14 -22 -6 -22 -6 -4 8 23 17 26 18
26 6z m-17 -75 l25 -25 -23 -21 -24 -22 4 36 c1 20 -1 36 -6 36 -5 0 -9 5 -9
10 0 15 7 12 33 -14z m87 9 c-7 -9 -15 -13 -19 -10 -3 3 1 10 9 15 21 14 24
12 10 -5z m2 -32 c-10 -4 -10 -8 0 -21 12 -14 11 -14 -9 -1 -16 9 -19 16 -10
21 7 4 17 7 22 7 6 0 4 -3 -3 -6z m10 -100 c-34 -28 -36 -28 -82 4 l-38 28 31
26 31 26 42 -31 42 -31 -26 -22z m-87 -93 c-3 -5 -1 -10 4 -10 6 0 11 5 11 12
0 20 13 -1 15 -25 2 -12 8 -21 14 -19 7 1 9 -2 5 -9 -5 -9 -2 -10 11 -5 15 5
16 4 5 -9 -16 -20 -20 -19 -53 9 -18 15 -26 30 -21 37 5 9 2 10 -12 6 -18 -7
-18 -7 0 8 23 17 30 19 21 5z m13 -86 c1 -1 -4 -7 -13 -14 -13 -11 -14 -10 -9
5 5 11 4 16 -3 12 -5 -3 -10 0 -10 8 0 12 3 12 16 3 9 -7 17 -13 19 -14z m458
-14 c24 -9 34 -40 13 -40 -5 0 -8 4 -5 9 8 12 -15 20 -82 28 -42 5 -51 8 -37
14 21 9 72 3 111 -11z m-860 0 c-40 -13 -72 -46 -112 -116 -19 -33 -34 -63
-34 -66 0 -3 35 1 77 8 74 13 116 12 57 -1 -54 -12 -49 -14 36 -10 76 4 79 3
30 -5 -30 -5 -93 -10 -138 -12 -46 -2 -86 -6 -89 -11 -6 -10 -72 -37 -92 -37
-9 0 -55 -18 -102 -41 -105 -51 -167 -60 -232 -31 -36 16 -47 18 -51 7 -3 -8
3 -16 15 -18 13 -3 12 -4 -5 -3 -40 2 -124 -54 -137 -91 -6 -18 -14 -35 -19
-38 -5 -3 -3 10 5 29 19 46 19 45 -11 56 -31 12 -98 -3 -133 -29 l-24 -18 36
-12 c21 -7 37 -17 37 -22 0 -5 7 -9 15 -9 18 0 18 -5 5 -31 -6 -10 -19 -19
-30 -19 -25 0 -34 -16 -13 -24 10 -4 26 2 40 16 22 21 24 28 18 76 -4 35 -3
52 5 52 16 0 26 -36 22 -76 -3 -26 -15 -43 -51 -73 -42 -35 -210 -127 -186
-102 6 6 43 26 83 46 101 49 93 71 -15 44 -36 -10 -47 -9 -53 2 -7 10 -10 9
-15 -6 -28 -86 -89 -188 -148 -244 -27 -28 -38 -31 -74 -28 -63 5 -64 17 -2
17 63 0 84 16 133 103 l27 48 -28 -7 c-15 -3 -43 -10 -61 -14 -18 -5 -30 -5
-27 0 3 4 22 11 42 14 61 11 90 26 102 52 6 14 11 29 11 35 0 14 62 121 67
115 2 -2 -3 -18 -11 -35 -23 -43 -21 -44 29 -38 51 7 105 42 105 68 0 19 -62
45 -80 34 -6 -3 -7 0 -4 10 5 11 2 14 -12 9 -11 -3 -3 3 16 13 19 11 53 31 75
45 46 29 164 73 172 64 7 -7 -59 -36 -81 -36 -29 0 -26 -18 4 -25 16 -4 30
-11 30 -16 0 -24 96 55 117 96 8 17 24 40 35 51 18 20 11 19 -78 -12 -54 -19
-100 -34 -103 -34 -3 0 21 14 53 30 32 16 63 27 68 24 4 -3 8 0 8 6 0 6 4 9 9
6 13 -8 42 4 35 15 -3 5 8 9 24 9 16 0 47 13 70 30 23 17 48 27 57 24 8 -3 15
-2 15 4 0 12 79 50 121 59 17 3 29 1 29 -5 0 -6 -19 -13 -42 -17 -46 -8 -69
-19 -110 -52 l-27 -21 35 -17 c28 -13 55 -15 142 -11 l107 5 -75 -15 c-41 -8
-93 -13 -115 -10 -39 5 -118 38 -113 47 2 2 1 3 -2 1 -3 -2 -4 -6 -2 -8 2 -3
-4 -16 -12 -29 -9 -14 -17 -36 -18 -50 -1 -14 -6 -25 -10 -25 -14 0 -9 39 9
73 16 31 16 32 -3 17 -62 -48 -81 -94 -50 -119 7 -6 34 -14 59 -17 38 -6 56
-2 102 20 30 15 55 31 55 35 0 4 11 13 25 19 14 6 25 8 25 3 0 -5 34 3 75 16
79 26 85 32 133 134 2 4 -16 10 -40 13 -24 4 -54 13 -68 21 l-25 14 30 0 c17
0 50 -4 75 -7 43 -7 47 -5 81 30 28 30 43 38 70 37 l34 -1 -29 -8z m440 -12
c4 -7 4 -10 -1 -6 -4 4 -17 3 -29 -3 -20 -10 -20 -10 -2 5 24 19 23 19 32 4z
m-272 -9 c12 -1 3 -5 -19 -9 -22 -4 -42 -4 -45 0 -3 4 -14 10 -25 13 -11 2 0
3 24 1 24 -2 53 -5 65 -5z m616 2 c-14 -5 -40 -16 -58 -25 -17 -9 -32 -14 -32
-11 0 9 75 44 95 44 16 -1 15 -2 -5 -8z m-820 -46 c-20 -32 -20 -62 0 -50 5 3
11 1 15 -4 4 -7 15 -7 32 0 14 5 28 8 30 6 6 -6 -49 -27 -82 -31 -28 -4 -31
-1 -30 24 0 15 11 41 24 59 32 41 38 39 11 -4z m993 7 c13 -12 29 -22 36 -22
7 0 10 -4 6 -10 -3 -5 -3 -20 1 -34 l6 -25 30 35 c17 19 40 34 52 34 17 0 14
-4 -13 -18 -23 -11 -38 -27 -42 -45 -6 -24 -4 -29 17 -37 29 -11 105 3 169 31
46 20 78 49 55 49 -8 0 -11 3 -7 6 11 11 152 -49 180 -78 28 -27 44 -37 33
-20 -3 5 1 9 9 9 11 0 12 -4 4 -13 -13 -16 29 -77 48 -69 31 12 46 15 26 4
-32 -17 -29 -24 15 -36 l37 -10 -32 -2 c-37 -1 -41 -11 -15 -34 21 -19 50 -26
147 -31 39 -2 81 -8 94 -12 19 -5 22 -4 16 6 -5 9 -4 11 4 6 6 -4 8 -12 5 -18
-5 -7 2 -9 20 -4 25 6 38 -8 14 -16 -6 -2 3 -13 20 -24 40 -25 92 -91 93 -118
1 -41 24 -89 47 -97 21 -8 23 -6 17 14 -4 16 -1 14 11 -8 l17 -30 9 28 c12 34
27 36 21 2 -4 -19 0 -25 21 -31 14 -3 26 -12 26 -20 0 -16 -11 -18 -25 -5 -12
10 -107 42 -112 38 -1 -2 8 -26 21 -53 19 -39 25 -45 29 -29 3 12 5 9 4 -10
-1 -17 3 -30 10 -30 6 0 15 -3 19 -7 13 -13 61 -9 73 6 20 24 17 88 -8 138
-27 57 -100 140 -154 177 -22 14 -51 34 -66 43 -14 10 -21 18 -14 18 18 0 164
-113 236 -183 48 -47 67 -73 78 -109 7 -27 16 -48 20 -48 3 0 4 -11 1 -25 -3
-20 4 -34 37 -65 22 -22 41 -42 41 -46 0 -4 -13 5 -30 21 -16 16 -32 26 -35
23 -3 -2 1 -22 8 -44 12 -35 18 -39 51 -42 22 -2 47 3 62 13 13 8 24 11 24 6
0 -6 22 -25 49 -42 28 -18 60 -51 73 -73 30 -53 50 -118 39 -129 -5 -5 -12 8
-16 30 -9 55 -46 124 -78 147 -24 17 -44 21 -123 22 -95 1 -96 1 -132 36 -20
20 -46 40 -57 46 -19 11 -18 11 7 12 19 0 33 -8 44 -25 38 -58 60 -10 25 55
-10 19 -21 60 -25 90 -5 39 -17 70 -43 108 -41 61 -53 68 -24 15 27 -50 51
-122 51 -154 0 -14 7 -34 15 -45 8 -10 15 -21 15 -24 0 -3 -27 -5 -61 -4 -75
1 -103 20 -144 96 -35 65 -54 90 -65 83 -9 -5 -110 31 -123 44 -6 6 19 0 55
-12 52 -19 67 -21 76 -10 10 10 8 17 -7 32 -13 13 -16 22 -9 29 17 17 -8 66
-53 106 -72 65 -129 80 -129 34 0 -28 37 -86 63 -99 19 -11 19 -12 3 -24 -9
-7 -27 -10 -39 -7 -20 5 -21 4 -7 -13 14 -17 14 -17 -5 -7 -37 19 -195 181
-195 199 0 4 14 -6 30 -22 22 -21 30 -25 30 -13 0 34 -12 48 -42 48 -22 0 -40
10 -65 36 -33 36 -34 36 -54 18 -25 -23 -149 -28 -156 -6 -3 6 -12 12 -21 12
-10 0 -47 18 -84 39 -37 21 -72 41 -80 44 -8 4 -7 6 5 6 10 1 41 -14 70 -32
80 -51 81 -51 73 -39 -9 15 6 16 21 1 14 -14 56 -2 47 13 -4 7 -2 8 4 4 18
-11 14 -36 -5 -37 -12 -1 -9 -4 7 -8 51 -16 130 11 130 43 0 19 -80 110 -113
129 -17 9 -45 17 -62 16 -24 -1 -21 -3 15 -10 34 -6 53 -18 77 -46 17 -20 29
-41 27 -45 -3 -4 2 -8 10 -8 9 0 16 -4 16 -9 0 -21 -39 3 -56 35 -21 38 -19
36 -56 39 -27 2 -33 -5 -28 -34 1 -12 -1 -12 -13 -3 -11 10 -16 10 -24 0 -18
-23 -22 -45 -10 -57 8 -8 8 -11 0 -11 -21 0 -38 30 -26 48 9 15 3 17 -64 17
-96 0 -128 13 -40 16 117 4 125 6 154 25 28 18 28 19 5 22 -12 2 -44 -3 -70
-12 -91 -29 -195 -36 -232 -16 -24 13 -71 13 -90 -1 -12 -8 -10 -9 8 -4 12 4
48 -1 80 -10 58 -17 275 -115 268 -122 -2 -2 -43 14 -90 36 -162 75 -220 90
-321 86 -80 -3 -85 -2 -40 6 79 16 82 32 5 25 -60 -5 -62 -4 -20 5 25 5 65 8
91 5 56 -6 74 4 66 36 -9 33 -45 78 -63 78 -8 0 -14 4 -14 9 0 15 28 6 53 -17z
m43 13 c16 -12 17 -14 2 -15 -23 0 -48 11 -48 21 0 14 24 11 46 -6z m74 7 c0
-4 10 -8 23 -9 56 -4 107 -15 113 -25 4 -7 -3 -8 -22 -4 -55 12 -123 9 -141
-5 -16 -12 -15 -11 1 9 11 12 14 22 8 22 -7 0 -12 5 -12 10 0 6 7 10 15 10 8
0 15 -4 15 -8z m-947 -24 c-30 -14 -30 -52 -1 -72 12 -9 17 -16 10 -16 -19 0
-52 38 -52 60 0 20 25 40 50 39 9 0 6 -5 -7 -11z m307 2 c0 -5 -4 -10 -10 -10
-5 0 -10 5 -10 10 0 6 5 10 10 10 6 0 10 -4 10 -10z m384 4 c9 -3 16 -16 16
-27 l0 -21 -20 22 c-28 30 -27 38 4 26z m-423 -21 c13 -16 12 -17 -3 -4 -10 7
-18 15 -18 17 0 8 8 3 21 -13z m397 -45 c-25 -19 -38 -23 -38 -10 0 4 -3 18
-6 32 -6 21 -4 23 7 13 17 -17 37 -17 21 -1 -24 24 -11 31 13 8 l26 -24 -23
-18z m-1071 46 c-3 -3 -12 -4 -19 -1 -8 3 -5 6 6 6 11 1 17 -2 13 -5z m435
-19 c3 -13 1 -22 -3 -19 -5 3 -9 0 -9 -5 0 -6 -4 -11 -10 -11 -14 0 -12 28 3
45 6 8 13 14 13 15 1 0 4 -11 6 -25z m586 -41 c-4 -3 -12 5 -18 18 -12 22 -12
22 6 6 10 -10 15 -20 12 -24z m172 26 c0 -5 -4 -10 -10 -10 -5 0 -10 5 -10 10
0 6 5 10 10 10 6 0 10 -4 10 -10z m-490 -14 c0 -3 -4 -8 -10 -11 -5 -3 -10 -1
-10 4 0 6 5 11 10 11 6 0 10 -2 10 -4z m-810 -16 c0 -5 -2 -10 -4 -10 -3 0 -8
5 -11 10 -3 6 -1 10 4 10 6 0 11 -4 11 -10z m128 -6 c29 -2 57 -6 62 -9 6 -3
10 1 10 10 0 9 4 13 10 10 6 -4 3 -16 -7 -31 -9 -14 -19 -22 -22 -17 -3 4 -19
9 -36 11 -68 7 -135 24 -129 34 3 5 18 7 33 3 14 -4 50 -9 79 -11z m329 0 c-3
-3 -12 -4 -19 -1 -8 3 -5 6 6 6 11 1 17 -2 13 -5z m323 2 c0 -3 -4 -8 -10 -11
-5 -3 -10 -1 -10 4 0 6 5 11 10 11 6 0 10 -2 10 -4z m47 -10 c0 -8 -3 -15 -6
-14 -14 1 -27 -4 -46 -18 -17 -13 -18 -16 -5 -24 9 -6 10 -10 3 -10 -22 0 -25
21 -6 39 14 13 48 37 59 41 0 0 1 -6 1 -14z m-277 -19 l45 -4 -46 -1 c-34 -2
-50 3 -60 16 -12 15 -12 16 1 5 9 -6 36 -13 60 -16z m-583 -3 c-3 -3 -12 -4
-19 -1 -8 3 -5 6 6 6 11 1 17 -2 13 -5z m2062 -75 c65 -34 132 -72 147 -86
l29 -24 -42 20 c-23 12 -44 25 -47 30 -5 8 -159 77 -209 95 -15 5 -16 26 -1
26 2 0 58 -28 123 -61z m-245 30 c-8 -14 -31 -11 -37 4 -4 10 2 13 19 9 13 -2
21 -8 18 -13z m-1874 1 c0 -5 -4 -10 -10 -10 -5 0 -10 5 -10 10 0 6 5 10 10
10 6 0 10 -4 10 -10z m410 0 c-8 -5 -26 -9 -40 -9 -23 0 -23 1 -5 9 11 5 29 9
40 9 17 1 17 -1 5 -9z m-240 -10 c0 -5 -2 -10 -4 -10 -3 0 -8 5 -11 10 -3 6
-1 10 4 10 6 0 11 -4 11 -10z m-144 -45 c-16 -24 -48 -31 -73 -16 -15 10 -14
10 8 5 29 -6 59 16 59 44 0 15 2 15 10 2 6 -10 5 -22 -4 -35z m631 29 c-4 -4
-2 -13 3 -19 8 -10 -17 -18 -107 -35 -302 -56 -470 -108 -664 -204 -90 -46
-322 -185 -369 -223 -8 -6 -60 -47 -115 -91 -320 -256 -560 -590 -716 -997
-37 -98 -54 -114 -23 -21 9 26 14 58 12 71 -3 13 -2 22 2 20 10 -6 20 19 20
47 0 11 6 32 14 46 7 15 23 50 36 77 35 79 182 322 251 415 59 80 263 290 361
372 24 20 86 67 138 105 299 216 489 314 695 358 33 7 98 22 144 34 118 31
334 61 318 45z m668 -13 c148 -22 261 -49 385 -90 47 -16 104 -34 128 -40 23
-7 40 -16 37 -21 -3 -6 1 -7 9 -4 8 3 23 0 33 -6 16 -10 16 -11 1 -6 -28 9
-21 -1 13 -18 26 -13 29 -13 19 -1 -7 8 -9 15 -4 15 14 -1 44 -26 39 -33 -3
-4 -2 -5 1 -2 9 6 27 -4 169 -93 186 -116 248 -166 431 -348 160 -159 235
-245 279 -321 11 -18 23 -33 27 -33 4 0 8 -5 8 -11 0 -6 23 -45 52 -87 90
-134 96 -145 149 -257 102 -215 173 -471 197 -702 8 -75 -1 -101 -12 -38 -4
20 -16 63 -27 97 -10 34 -17 63 -14 66 2 2 1 12 -4 21 -16 31 -23 73 -10 66 6
-4 4 3 -4 16 -9 13 -22 49 -31 79 -33 121 -54 188 -65 206 -5 10 -20 42 -32
69 -53 124 -75 164 -160 303 -133 215 -232 342 -371 477 -378 369 -795 577
-1303 651 -117 17 -129 20 -119 35 3 5 9 7 14 4 4 -3 10 2 14 10 7 18 -5 19
151 -4z m-366 6 c-2 -1 -13 -9 -24 -17 -19 -14 -19 -14 -6 3 7 9 18 17 24 17
6 0 8 -1 6 -3z m871 -7 c0 -5 -4 -10 -9 -10 -5 0 -16 -3 -25 -6 -9 -3 -16 -1
-16 4 0 9 16 17 43 21 4 0 7 -3 7 -9z m104 -30 c15 15 26 12 20 -5 -8 -20 -43
-19 -66 2 -28 25 -21 37 9 13 18 -14 30 -17 37 -10z m-2149 0 c-3 -5 -12 -10
-18 -10 -7 0 -6 4 3 10 19 12 23 12 15 0z m1137 -36 c-3 -15 -13 -29 -23 -31
-11 -3 -19 -9 -19 -13 0 -11 32 -24 49 -21 13 2 13 0 2 -13 -12 -15 -16 -14
-39 9 -23 24 -24 26 -8 50 19 29 11 32 -24 8 -17 -11 -14 -5 10 20 39 39 61
35 52 -9z m898 36 c0 -5 -2 -10 -4 -10 -3 0 -8 5 -11 10 -3 6 -1 10 4 10 6 0
11 -4 11 -10z m-955 -10 c-3 -5 -11 -10 -16 -10 -6 0 -7 5 -4 10 3 6 11 10 16
10 6 0 7 -4 4 -10z m1160 -70 c16 -7 13 -9 -17 -9 -21 -1 -38 4 -38 9 0 12 27
12 55 0z m-1128 -64 c-2 -5 -14 -16 -28 -25 -23 -15 -23 -15 -10 2 11 14 12
23 2 43 l-11 25 25 -18 c13 -10 23 -22 22 -27z m-1478 -8 c-2 -2 -19 -16 -37
-32 -17 -17 -32 -27 -32 -23 0 9 53 57 64 57 5 0 7 -1 5 -2z m1516 -18 c3 -6
-1 -7 -9 -4 -18 7 -21 14 -7 14 6 0 13 -4 16 -10z m1405 0 c0 -5 -8 -10 -17
-10 -15 0 -16 2 -3 10 19 12 20 12 20 0z m-1420 -30 c0 -9 5 -21 10 -26 6 -6
8 -18 4 -27 -7 -19 -39 -23 -49 -7 -3 6 1 10 9 10 9 0 16 5 16 10 0 6 -5 10
-11 10 -6 0 -9 7 -5 15 7 18 -14 20 -34 3 -8 -7 -7 -4 2 7 21 25 58 28 58 5z
m1460 -65 c-37 -38 -67 -49 -33 -12 25 26 39 67 24 67 -6 0 -11 8 -11 17 0 14
5 12 27 -10 l27 -27 -34 -35z m-3070 41 c0 -2 -8 -10 -17 -17 -16 -13 -17 -12
-4 4 13 16 21 21 21 13z m3047 -12 c-3 -3 -12 -4 -19 -1 -8 3 -5 6 6 6 11 1
17 -2 13 -5z m-2972 -22 c-3 -3 -11 0 -18 7 -9 10 -8 11 6 5 10 -3 15 -9 12
-12z m-27 -10 c2 -7 -6 -12 -17 -12 -21 0 -27 11 -14 24 9 9 26 2 31 -12z
m1597 -2 c-10 -11 -22 -20 -28 -20 -5 0 1 9 14 20 31 25 37 25 14 0z m1575 -1
c0 -7 8 -18 18 -26 16 -14 16 -14 0 -9 -10 3 -18 1 -18 -4 0 -6 -4 -10 -9 -10
-5 0 -8 11 -5 24 3 17 -1 26 -13 29 -14 4 -13 5 5 6 12 0 22 -4 22 -10z
m-3280 -14 c-7 -8 -17 -15 -23 -15 -6 0 -2 7 9 15 25 19 30 19 14 0z m276 0
c-11 -8 -27 -15 -35 -15 -9 1 -2 7 14 15 39 18 44 18 21 0z m-252 -17 c-4 -7
-20 -29 -35 -49 -16 -20 -26 -39 -22 -43 3 -3 1 -6 -5 -6 -21 0 -13 22 24 66
34 42 53 58 38 32z m1621 2 c-3 -5 -10 -10 -16 -10 -5 0 -9 5 -9 10 0 6 7 10
16 10 8 0 12 -4 9 -10z m1535 -33 c13 -9 20 -17 14 -17 -17 0 -64 40 -64 53 1
7 5 6 13 -3 7 -9 23 -24 37 -33z m-3140 -7 c-6 -12 -14 -19 -17 -17 -3 3 -1
12 3 19 5 7 9 16 10 21 4 19 6 21 10 10 3 -7 0 -22 -6 -33z m1666 8 c17 -18
35 -50 41 -71 11 -35 10 -39 -15 -54 -15 -9 -37 -26 -49 -37 l-23 -19 -27 24
c-16 13 -29 27 -31 32 -2 4 -18 7 -35 7 -24 0 -28 3 -17 10 8 5 11 12 7 16 -3
4 -13 1 -22 -6 -9 -7 -18 -11 -20 -8 -3 2 17 20 43 40 26 20 60 50 76 67 17
17 33 31 36 31 3 0 20 -15 36 -32z m-1817 -160 c-12 -46 -31 -98 -41 -116 -24
-39 -17 -53 12 -27 11 10 23 16 26 12 3 -3 -5 -13 -18 -21 -16 -11 -55 -17
-114 -20 l-89 -4 60 17 c46 13 59 20 57 34 -2 9 2 17 8 17 5 0 10 -10 10 -22
0 -22 1 -22 23 6 13 16 29 50 35 75 24 93 47 160 50 146 2 -8 -7 -51 -19 -97z
m1906 74 c19 -11 19 -11 -2 -12 -12 0 -27 9 -33 19 -14 27 -13 38 3 19 6 -8
21 -20 32 -26z m-1751 -24 c-10 -18 -19 -28 -21 -21 -5 15 15 53 28 53 5 0 2
-15 -7 -32z m3486 7 c13 -14 21 -25 18 -25 -2 0 -15 11 -28 25 -13 14 -21 25
-18 25 2 0 15 -11 28 -25z m-3576 -1 c3 -8 2 -12 -4 -9 -6 3 -10 10 -10 16 0
14 7 11 14 -7z m40 -9 c-18 -28 -11 -47 14 -39 14 5 14 3 -2 -10 -10 -8 -23
-13 -27 -10 -15 9 -10 46 8 66 23 25 26 22 7 -7z m3406 14 c0 -5 -4 -7 -10 -4
-5 3 -10 1 -10 -5 0 -6 -5 -8 -11 -4 -8 4 -7 9 2 15 19 12 29 11 29 -2z m-62
-46 c9 -7 11 -13 6 -13 -17 0 -34 23 -33 45 1 20 1 20 6 0 3 -11 12 -26 21
-32z m-3490 -34 c-30 -19 -39 -8 -16 19 21 26 23 27 26 9 2 -11 -2 -24 -10
-28z m110 -4 c-3 -3 -9 2 -12 12 -6 14 -5 15 5 6 7 -7 10 -15 7 -18z m1687 -4
c3 -5 2 -12 -3 -15 -5 -3 -9 1 -9 9 0 17 3 19 12 6z m80 -26 c17 -14 26 -25
20 -25 -5 0 -23 11 -40 25 -16 13 -25 24 -20 24 6 0 24 -11 40 -24z m1819 10
c11 -8 16 -15 10 -15 -5 0 -18 7 -28 15 -11 8 -16 15 -10 15 5 0 18 -7 28 -15z
m-1832 -38 c37 -23 37 -23 15 -37 -12 -8 -25 -13 -29 -12 -5 1 -7 -3 -5 -10 4
-22 -32 -20 -74 5 l-40 24 35 22 c20 13 41 19 47 15 8 -4 9 -3 5 4 -11 18 5
14 46 -11z m1913 2 c-4 -5 -1 -9 4 -9 6 0 11 -5 11 -11 0 -8 -5 -8 -15 1 -17
14 -21 45 -5 35 6 -4 8 -11 5 -16z m-3905 -14 c-13 -15 -30 -12 -30 6 0 6 4 8
9 4 5 -3 13 0 16 6 4 5 9 8 12 5 3 -3 0 -12 -7 -21z m220 11 c0 -2 -8 -10 -17
-17 -16 -13 -17 -12 -4 4 13 16 21 21 21 13z m-177 -131 c-3 -13 -16 -31 -29
-40 -24 -15 -24 -15 -12 12 23 55 49 73 41 28z m3918 -16 c10 -25 9 -32 -6
-49 -22 -24 -58 -26 -76 -3 -13 15 -12 15 8 5 46 -25 76 19 42 62 -19 24 -19
24 0 19 11 -3 25 -18 32 -34z m-4111 27 c0 -2 -8 -10 -17 -17 -16 -13 -17 -12
-4 4 13 16 21 21 21 13z m3978 -48 c40 -54 80 -117 70 -108 -7 6 -102 132
-112 149 -4 6 -5 11 -2 11 3 0 23 -24 44 -52z m-3948 39 c0 -2 -10 -12 -21
-23 -22 -19 -22 -19 -8 4 12 19 29 30 29 19z m76 -32 c-4 -14 -11 -25 -16 -25
-5 0 -7 7 -4 15 10 24 -9 16 -32 -13 l-21 -27 52 1 c31 0 61 6 70 14 22 18
-13 -34 -79 -118 -27 -34 -51 -60 -54 -57 -3 3 2 13 11 23 19 21 22 37 5 26
-7 -4 -8 -3 -4 4 4 7 13 12 21 12 17 0 67 59 62 74 -2 6 -24 11 -49 11 l-45 1
-23 -59 -23 -58 21 -45 c16 -33 20 -50 12 -62 -8 -15 -9 -14 -10 5 0 36 -22
74 -39 69 -9 -3 -30 -7 -48 -11 -18 -3 -43 -15 -57 -26 -19 -15 -24 -16 -20
-5 7 18 82 56 112 56 17 0 22 6 22 28 0 43 47 128 93 167 45 38 53 39 43 0z
m2099 18 l70 -7 -70 -11 c-46 -8 -74 -9 -82 -3 -9 7 -15 5 -19 -6 -3 -9 -26
-25 -51 -36 -55 -24 -78 -26 -40 -2 28 17 36 35 15 31 -14 -3 -78 10 -92 19
-32 19 132 28 269 15z m-2272 -58 c-3 -9 -8 -14 -10 -11 -3 3 -2 9 2 15 9 16
15 13 8 -4z m2257 5 c12 -8 12 -10 -5 -9 -11 0 -29 4 -40 9 -18 8 -18 9 5 9
14 0 32 -4 40 -9z m-58 -40 c3 -16 1 -30 -3 -30 -11 0 -16 -94 -6 -101 14 -10
0 -39 -18 -39 -9 0 -13 5 -10 10 4 6 12 8 18 4 7 -3 2 3 -9 13 -16 13 -24 35
-29 76 -4 39 -12 60 -22 64 -14 5 -13 8 3 20 10 7 30 13 45 13 22 0 27 -5 31
-30z m2040 9 c16 -12 27 -24 24 -27 -3 -2 -12 1 -20 7 -8 7 -27 14 -43 16 -15
2 -30 4 -33 4 -7 2 24 21 33 21 5 0 22 -9 39 -21z m-4269 -14 c-3 -9 -8 -14
-10 -11 -3 3 -2 9 2 15 9 16 15 13 8 -4z m2017 -13 c45 -4 73 -11 70 -17 -3
-5 -12 -9 -20 -8 -9 1 -5 -6 10 -19 38 -31 78 -178 48 -178 -7 0 9 -22 36 -49
26 -27 44 -51 39 -54 -5 -4 -40 16 -76 43 -73 52 -91 58 -239 68 -160 12 -382
-15 -433 -52 -10 -7 -19 -31 -22 -60 -5 -38 -2 -53 16 -77 l21 -29 -47 6 c-58
7 -121 30 -147 52 -33 30 -46 71 -56 170 -5 56 -18 118 -29 144 l-19 46 29 4
c23 4 40 -3 74 -30 l44 -34 93 22 c279 65 372 73 608 52z m616 4 c148 -20 412
-64 452 -75 19 -6 32 -6 32 0 0 5 -5 9 -11 9 -8 0 -8 4 1 14 13 16 108 51 116
43 3 -3 -2 -17 -11 -30 -11 -17 -21 -72 -30 -164 l-14 -138 -34 -30 c-19 -17
-57 -38 -83 -47 -56 -20 -135 -34 -118 -21 38 28 52 104 29 157 -7 15 -5 17 6
11 8 -5 7 -1 -3 12 -25 28 -22 58 8 82 32 25 62 27 93 5 20 -15 22 -22 18 -66
-3 -27 -15 -67 -26 -89 -11 -21 -18 -39 -15 -39 15 0 -23 -34 -51 -46 -21 -9
-24 -13 -11 -14 27 0 82 44 113 91 21 32 25 47 20 85 -9 80 -28 95 -158 125
-303 69 -440 90 -477 70 -31 -17 -34 -50 -6 -78 13 -13 24 -25 24 -27 0 -2
-26 -7 -57 -11 -32 -4 -73 -13 -92 -21 -19 -8 -36 -12 -38 -10 -3 2 28 39 69
82 40 42 63 72 52 66 -27 -14 -119 -115 -150 -164 -38 -59 -36 -45 3 37 35 75
39 105 18 158 -7 16 2 17 99 17 64 0 106 4 106 10 0 13 -4 13 126 -4z m-487
-46 c1 -13 0 -13 -9 0 -5 8 -9 24 -9 35 l0 20 9 -20 c5 -11 9 -27 9 -35z
m2168 -19 c14 -21 23 -49 23 -75 0 -23 7 -50 15 -60 15 -19 16 -19 44 8 22 21
35 26 48 21 16 -7 15 -9 -7 -12 -36 -6 -52 -30 -38 -57 10 -20 10 -20 -8 -5
-13 11 -25 14 -39 9 -32 -13 -37 -11 -30 11 13 40 -5 130 -30 155 -13 13 -21
24 -17 24 4 0 0 5 -8 11 -12 8 -12 10 5 7 10 -2 30 -18 42 -37z m-1697 -1 c24
-8 23 -8 -8 -9 -30 -1 -31 -3 -20 -21 16 -25 29 -26 22 -2 -5 16 -5 16 8 0 13
-15 16 -16 30 -2 11 12 27 14 67 8 50 -6 52 -8 46 -34 -7 -32 13 -53 47 -48
17 2 22 9 21 26 -2 18 2 22 27 22 16 0 53 -5 81 -11 49 -11 51 -13 34 -25 -11
-8 -24 -13 -30 -10 -5 2 -19 7 -30 11 -18 6 -18 5 -2 -5 25 -16 21 -30 -8 -30
-15 0 -25 6 -25 14 0 8 -7 17 -16 20 -12 4 -15 0 -12 -17 2 -16 14 -26 48 -36
37 -12 41 -16 25 -22 -19 -7 -19 -8 2 -8 12 -1 25 -6 29 -13 5 -8 2 -9 -12 -4
-109 42 -145 49 -274 54 -212 7 -315 -18 -410 -101 -49 -43 -49 -17 0 42 34
40 51 51 100 65 79 22 286 35 336 20 22 -6 64 -14 94 -17 l55 -6 -50 14 c-27
8 -62 15 -76 15 -14 0 -34 7 -45 16 -18 15 -18 15 4 9 16 -5 30 -1 43 11 45
40 3 47 -62 9 -51 -29 -93 -31 -149 -9 -43 17 -50 36 -23 66 17 19 85 23 133
8z m-2687 -31 c-10 -17 -24 -36 -32 -42 -12 -10 -13 -9 -6 3 14 24 48 70 52
70 2 0 -4 -14 -14 -31z m4519 -24 c20 -10 39 -24 42 -31 6 -15 -23 -12 -32 3
-4 6 -20 15 -35 18 -15 4 -30 11 -33 16 -3 5 -14 9 -25 9 -11 0 -18 4 -14 9 6
11 43 2 97 -24z m-2285 3 c-3 -8 -6 -5 -6 6 -1 11 2 17 5 13 3 -3 4 -12 1 -19z
m637 -23 c-4 -8 -10 -12 -15 -9 -11 6 -2 24 11 24 5 0 7 -7 4 -15z m-2741 -53
c9 -8 16 -25 16 -36 -1 -20 -2 -20 -6 -1 -13 51 -59 61 -92 19 -12 -15 -21
-22 -21 -17 0 25 56 66 75 56 5 -3 18 -13 28 -21z m2147 -13 c0 -17 -4 -28
-10 -24 -5 3 -10 17 -10 31 0 13 5 24 10 24 6 0 10 -14 10 -31z m2308 -75 c-3
-70 -9 -87 -23 -64 -4 7 -14 5 -28 -5 -12 -8 -29 -15 -39 -15 -19 0 -80 49
-60 50 6 0 12 -4 12 -9 0 -5 14 -14 32 -20 29 -10 35 -9 57 13 18 19 25 39 29
80 7 82 23 57 20 -30z m-4621 -31 c5 -40 6 -73 1 -73 -12 0 -16 16 -22 100 -6
92 8 73 21 -27z m118 17 c-7 -11 -35 -14 -35 -4 0 3 5 15 11 26 10 19 12 20
21 5 5 -10 6 -22 3 -27z m4352 20 c-3 -21 -17 -40 -17 -22 0 13 11 42 16 42 2
0 3 -9 1 -20z m73 -30 c5 0 11 6 13 13 3 6 6 2 6 -10 1 -33 -19 -39 -40 -12
-23 29 -25 46 -3 25 8 -9 19 -16 24 -16z m-4500 10 c0 -5 -4 -10 -10 -10 -5 0
-10 5 -10 10 0 6 5 10 10 10 6 0 10 -4 10 -10z m97 -35 c-22 -20 -38 -25 -75
-24 l-47 2 46 6 c25 4 57 14 70 23 35 25 38 21 6 -7z m3043 -9 c0 -2 -8 -10
-17 -17 -16 -13 -17 -12 -4 4 13 16 21 21 21 13z m1335 -86 c14 -27 23 -50 21
-50 -4 0 -56 89 -56 96 0 14 13 -3 35 -46z m85 26 c-13 -16 -10 -106 5 -141 6
-16 6 -18 -6 -7 -18 17 -25 137 -9 157 7 9 15 13 18 10 3 -2 -1 -11 -8 -19z
m-4670 6 c0 -5 -7 -17 -16 -28 -8 -10 -14 -14 -11 -9 2 6 7 18 10 28 7 17 17
23 17 9z m146 -12 c0 -11 -6 -20 -13 -20 -15 0 -15 2 -7 24 9 22 20 20 20 -4z
m4584 -16 c14 -36 13 -94 -2 -94 -7 0 -4 -6 7 -11 52 -29 95 -63 95 -77 0 -10
-7 -6 -20 11 -11 14 -44 35 -75 48 -30 12 -57 29 -60 38 -5 13 -4 13 6 4 8 -8
18 -9 31 -2 21 11 20 67 -2 94 -9 11 -9 15 -1 15 6 0 16 -12 21 -26z m-4780
12 c0 -3 -4 -8 -10 -11 -5 -3 -10 -1 -10 4 0 6 5 11 10 11 6 0 10 -2 10 -4z
m1413 -23 c-5 -12 -3 -14 7 -8 8 5 11 3 8 -6 -3 -8 -12 -13 -22 -11 -9 2 -16
-2 -16 -8 0 -6 5 -8 10 -5 6 3 10 1 10 -5 0 -6 6 -8 13 -4 6 4 -1 -7 -17 -24
-30 -32 -54 -44 -40 -19 14 24 -39 -29 -68 -68 -27 -36 -25 -34 18 10 57 60
49 42 -16 -35 -151 -179 -238 -348 -297 -575 -25 -96 -36 -237 -20 -262 5 -7
25 -3 64 13 82 33 127 32 165 -6 27 -28 30 -35 24 -71 -4 -23 -13 -54 -21 -69
-14 -27 -15 -27 -145 -35 -72 -4 -133 -5 -136 -2 -2 2 22 12 53 22 91 28 145
59 181 104 18 23 29 41 24 41 -5 0 -15 -7 -22 -15 -11 -13 -14 -12 -29 6 -16
20 -51 18 -51 -2 0 -4 7 -6 16 -2 12 4 15 1 13 -13 -5 -24 -220 -134 -264
-135 -28 0 -26 -2 25 -27 55 -26 55 -27 27 -36 -31 -11 -35 -22 -9 -29 10 -3
5 -5 -13 -7 -25 -1 -27 -3 -10 -9 15 -6 11 -9 -22 -14 -32 -6 -42 -12 -47 -31
-9 -36 -55 -87 -93 -102 -38 -16 -87 -19 -78 -4 3 6 15 10 26 10 11 0 40 20
64 45 37 37 45 51 45 82 0 43 -28 96 -59 113 -28 14 -26 1 4 -40 35 -47 32
-74 -12 -107 -71 -54 -212 -28 -199 38 8 43 -25 63 -164 97 -18 4 -5 9 50 17
41 7 111 22 154 34 93 25 126 26 189 7 53 -16 154 -13 189 5 13 7 39 25 58 41
19 15 46 28 60 29 18 0 11 5 -25 17 -72 24 -75 28 -77 85 l-1 52 -6 -54 c-5
-45 -8 -52 -18 -39 -9 11 -10 35 -3 96 19 167 75 345 156 499 81 152 239 358
313 409 42 29 42 29 34 7z m2116 -82 c64 -63 168 -211 223 -316 81 -154 158
-431 158 -570 l0 -60 -45 -18 c-64 -27 -76 -27 -115 -4 l-35 21 19 -22 c10
-12 28 -24 40 -28 11 -4 39 -19 61 -34 85 -58 93 -60 175 -44 40 7 76 12 78 9
3 -2 -1 -13 -9 -22 -13 -17 -13 -17 6 -3 11 8 23 19 27 24 12 18 121 19 161 2
57 -23 166 -49 183 -42 9 3 13 13 10 23 -23 77 -7 113 49 113 46 0 51 -13 10
-25 -36 -10 -37 -11 -39 -61 -1 -48 0 -50 24 -47 14 2 7 -3 -15 -10 -35 -12
-195 -103 -195 -112 0 -1 8 -2 17 -1 11 0 19 -7 21 -20 3 -20 -2 -22 -47 -25
-28 -2 -51 -1 -51 4 0 4 -13 7 -29 7 -16 0 -36 7 -45 15 -8 8 -27 15 -43 16
-15 0 -22 3 -15 6 17 7 15 23 -3 23 -11 0 -15 11 -15 38 0 27 -3 33 -10 22
-17 -27 -11 -86 13 -121 28 -42 82 -79 116 -79 25 -1 25 -1 7 -15 -26 -20 -67
-19 -110 2 -31 14 -39 26 -61 92 -14 42 -25 83 -25 91 0 12 -14 15 -72 14 -40
-1 -57 0 -38 3 46 6 59 20 21 21 -17 0 -36 4 -43 8 -6 4 -34 8 -62 9 -28 1
-60 5 -71 9 -17 7 -17 6 -5 -4 27 -21 -79 -2 -123 22 -58 32 -74 64 -59 116
24 78 98 96 182 44 44 -27 50 -29 62 -15 17 21 17 179 -1 253 -19 82 -51 192
-61 215 -5 11 -27 59 -48 106 -55 121 -128 224 -242 343 -90 93 -96 102 -70
98 19 -3 30 0 30 7 0 20 39 -7 109 -78z m-3435 30 c-6 -6 -24 19 -24 34 1 6 7
1 15 -9 8 -11 12 -22 9 -25z m48 -3 c-2 -36 -41 -144 -42 -115 0 10 7 34 15
54 8 19 15 51 15 71 0 19 3 32 7 29 3 -4 6 -22 5 -39z m4732 -48 c3 -14 -3 -7
-13 15 -11 22 -20 45 -20 50 0 15 26 -37 33 -65z m-4940 -11 c-27 -67 -42 -91
-29 -49 12 40 47 121 51 117 2 -2 -8 -33 -22 -68z m126 11 c-45 -42 -60 -46
-39 -12 10 16 50 42 78 51 2 0 -15 -17 -39 -39z m10 -80 c0 -6 -16 -20 -35
-31 -40 -24 -46 -55 -12 -69 15 -6 17 -9 6 -9 -24 -1 -42 25 -35 51 3 13 20
33 38 45 39 26 38 26 38 13z m4767 -32 c7 -14 10 -33 7 -42 -10 -26 -21 -18
-16 12 2 18 -2 33 -13 42 -15 12 -19 12 -31 -5 -11 -15 -14 -15 -14 -4 0 39
49 37 67 -3z m43 -25 c0 -46 -14 -69 -50 -81 -26 -10 -34 -8 -60 14 -20 18
-30 34 -29 52 1 15 3 20 5 12 6 -22 69 -62 91 -58 26 5 40 52 26 89 -10 26
-10 29 3 19 8 -7 14 -28 14 -47z m30 13 c4 -21 4 -36 -1 -36 -5 0 -9 8 -9 18
0 9 -3 28 -7 42 -3 14 -3 22 1 18 4 -3 11 -23 16 -42z m-5030 -56 c-13 -44
-25 -78 -28 -75 -3 2 5 41 18 85 13 44 25 78 28 75 3 -2 -5 -41 -18 -85z m91
61 c-24 -43 15 -100 60 -88 10 3 19 2 19 -3 0 -13 -42 -19 -62 -9 -23 12 -19
15 -53 -35 -25 -36 -25 -38 -6 -33 12 3 19 1 15 -4 -3 -5 -12 -9 -20 -9 -8 0
-28 -7 -45 -15 l-29 -16 26 -45 c15 -25 24 -48 20 -51 -3 -3 -9 3 -12 13 -4
10 -16 30 -26 43 -25 33 -23 48 12 66 42 22 80 82 80 127 0 35 19 93 27 84 3
-2 0 -14 -6 -25z m114 -37 c-8 -20 -17 -35 -20 -32 -3 2 3 23 13 46 9 23 18
37 20 32 2 -4 -4 -25 -13 -46z m-15 32 c0 -2 -8 -10 -17 -17 -16 -13 -17 -12
-4 4 13 16 21 21 21 13z m4810 -102 c0 -8 -5 -12 -10 -9 -6 4 -8 11 -5 16 9
14 15 11 15 -7z m73 -34 c-6 -6 -33 30 -33 43 0 5 9 -1 19 -14 11 -13 17 -26
14 -29z m-60 -10 c20 -8 37 -18 37 -22 0 -5 -19 1 -42 13 -40 20 -66 37 -43
28 6 -2 27 -11 48 -19z m-4883 -25 c0 -5 -5 -3 -10 5 -5 8 -10 20 -10 25 0 6
5 3 10 -5 5 -8 10 -19 10 -25z m4820 25 c0 -5 -5 -10 -11 -10 -5 0 -7 5 -4 10
3 6 8 10 11 10 2 0 4 -4 4 -10z m156 -30 c8 0 14 -4 14 -10 0 -5 -10 -8 -22
-6 -13 3 -26 5 -30 5 -5 1 -8 6 -8 12 0 6 7 8 16 5 9 -3 22 -6 30 -6z m-136
-15 c-12 -14 -11 -34 5 -105 4 -22 3 -21 -9 5 -18 37 -20 87 -4 103 17 17 23
15 8 -3z m-4918 -13 c5 -16 2 -17 -18 -8 -15 7 -19 13 -11 18 18 12 24 10 29
-10z m89 -18 c-5 -16 -10 -21 -10 -12 -1 18 10 51 15 45 2 -1 -1 -16 -5 -33z
m95 -44 c-8 -25 -15 -36 -15 -25 -2 16 -6 12 -21 -15 l-19 -35 -1 29 c0 16 3
27 6 24 9 -10 41 27 49 58 4 16 9 24 11 19 2 -6 -2 -30 -10 -55z m4824 55 c0
-2 -5 -16 -12 -30 -11 -25 -28 -34 -28 -15 0 6 5 10 11 10 5 0 7 5 4 10 -7 12
2 30 16 30 5 0 9 -2 9 -5z m26 -36 c-8 -19 -15 -29 -15 -22 -1 18 19 67 25 61
3 -3 -2 -21 -10 -39z m-5119 -41 c-3 -7 -5 -2 -5 12 0 14 2 19 5 13 2 -7 2
-19 0 -25z m123 -3 c0 -5 -5 -3 -10 5 -5 8 -10 20 -10 25 0 6 5 3 10 -5 5 -8
10 -19 10 -25z m34 -4 c-4 -17 -9 -30 -11 -27 -3 2 -2 19 2 36 9 41 17 33 9
-9z m-170 -55 c-3 -21 -8 -35 -11 -32 -2 2 -1 20 3 40 3 21 8 35 11 32 2 -2 1
-20 -3 -40z m5070 -40 c-21 -41 -40 -73 -43 -71 -2 3 13 39 33 81 21 41 40 73
43 71 3 -3 -12 -39 -33 -81z m-4821 -10 c-2 -17 -10 -47 -16 -66 l-11 -35 -7
35 c-6 26 -4 38 7 46 19 15 18 25 -3 17 -13 -5 -15 -2 -10 11 4 10 7 24 7 32
0 12 4 12 19 2 15 -9 18 -19 14 -42z m-266 -28 c-3 -7 -5 -2 -5 12 0 14 2 19
5 13 2 -7 2 -19 0 -25z m87 -11 c11 -8 16 -20 13 -28 -4 -11 -6 -10 -6 3 -1
19 -35 33 -52 22 -8 -4 -9 -3 -5 4 9 16 28 15 50 -1z m5058 -7 c-18 -11 -35
-20 -38 -20 -12 0 10 22 30 30 38 15 42 10 8 -10z m-52 -9 c0 -5 -9 -19 -21
-32 l-20 -24 17 33 c19 33 24 38 24 23z m167 -23 c-3 -7 -5 -2 -5 12 0 14 2
19 5 13 2 -7 2 -19 0 -25z m-5111 -52 c-7 -30 -63 -106 -78 -106 -6 0 0 12 14
28 30 31 58 83 59 109 0 11 3 13 6 5 3 -7 2 -23 -1 -36z m4987 -55 c-9 -12
-25 22 -29 60 l-5 44 18 -50 c11 -27 17 -52 16 -54z m-80 49 c3 -11 1 -18 -4
-14 -5 3 -9 12 -9 20 0 20 7 17 13 -6z m-5015 -15 c-3 -3 -9 2 -12 12 -6 14
-5 15 5 6 7 -7 10 -15 7 -18z m182 10 c11 7 2 -86 -11 -131 -13 -41 -14 -341
-1 -357 5 -6 12 -30 15 -52 5 -30 4 -35 -4 -22 -19 32 -38 152 -40 252 -3 96
20 343 28 317 3 -6 9 -10 13 -7z m5047 -7 c-3 -8 -6 -5 -6 6 -1 11 2 17 5 13
3 -3 4 -12 1 -19z m10 -160 c-2 -24 -4 -7 -4 37 0 44 2 63 4 43 2 -21 2 -57 0
-80z m-5219 50 c17 -17 14 -58 -8 -98 -14 -26 -19 -30 -19 -15 0 11 6 29 14
39 22 30 19 65 -7 76 -14 5 -17 9 -7 9 8 1 20 -4 27 -11z m4942 -193 c0 -103
-2 -190 -5 -193 -3 -3 -5 84 -5 193 0 109 2 196 5 193 3 -3 6 -90 5 -193z
m205 165 c-3 -5 -12 -10 -18 -10 -7 0 -6 4 3 10 19 12 23 12 15 0z m-80 -90
c3 -6 -1 -7 -9 -4 -18 7 -21 14 -7 14 6 0 13 -4 16 -10z m-4567 -66 c38 -26
26 -104 -17 -104 -12 0 -12 3 -3 12 43 43 -33 117 -77 76 -11 -10 -10 -8 0 10
16 26 63 30 97 6z m-469 -30 c34 -28 39 -55 16 -74 -9 -8 -15 -9 -15 -2 0 6 5
14 10 17 6 3 10 11 10 16 0 19 -49 59 -71 59 -25 0 -69 -36 -69 -57 0 -7 -4
-13 -9 -13 -17 0 1 40 27 60 34 27 64 25 101 -6z m5081 19 c-8 -3 -24 -13 -34
-22 -18 -15 -18 -15 -7 7 7 13 21 22 34 21 15 0 17 -2 7 -6z m-5101 -42 c18
-11 4 -17 -44 -19 -40 -2 -40 -2 -15 13 29 17 40 18 59 6z m5114 2 c-7 -2 -19
-2 -25 0 -7 3 -2 5 12 5 14 0 19 -2 13 -5z m-323 -18 c14 -16 10 -18 -14 -9
-9 3 -16 10 -16 15 0 14 16 11 30 -6z m-4502 -35 c-13 -20 -38 -35 -38 -23 0
10 32 43 42 43 4 0 3 -9 -4 -20z m4756 -22 c2 -16 1 -28 -4 -28 -10 0 -20 26
-20 53 0 28 17 10 24 -25z m336 12 c-8 -5 -22 -10 -32 -10 -9 0 -39 -18 -67
-40 -28 -22 -55 -40 -61 -40 -5 0 -9 -6 -7 -12 1 -7 -6 -12 -15 -12 -10 1 -15
-3 -11 -9 4 -6 0 -8 -10 -4 -9 3 -18 0 -21 -9 -3 -8 -16 -14 -28 -14 -13 0
-29 -4 -36 -9 -7 -4 24 -7 70 -5 l83 3 -74 -10 c-41 -5 -79 -13 -85 -19 -7 -7
-4 -10 7 -10 18 0 23 -15 8 -24 -5 -4 -11 -1 -13 6 -2 6 -24 11 -53 10 -46 0
-48 1 -30 14 11 8 30 17 43 21 12 3 22 9 22 13 0 5 16 14 35 21 19 7 35 17 35
21 0 4 5 8 10 8 10 0 21 7 54 36 16 15 114 65 146 75 36 11 47 10 30 -1z
m-5380 -16 c0 -14 -3 -14 -15 -4 -8 7 -15 14 -15 16 0 2 7 4 15 4 8 0 15 -7
15 -16z m41 -7 c-10 -9 -11 -8 -5 6 3 10 9 15 12 12 3 -3 0 -11 -7 -18z m337
16 c-10 -2 -26 -2 -35 0 -10 3 -2 5 17 5 19 0 27 -2 18 -5z m4442 -36 c30 -36
31 -39 8 -21 -37 29 -88 19 -151 -29 -27 -20 -52 -37 -56 -37 -21 0 -18 17 6
42 23 24 24 28 8 22 -11 -4 -25 -11 -31 -15 -11 -9 -24 -2 -24 12 0 14 105 50
200 68 3 0 21 -18 40 -42z m-3617 26 c-7 -2 -19 -2 -25 0 -7 3 -2 5 12 5 14 0
19 -2 13 -5z m-774 -17 l23 -13 -23 -7 -24 -7 23 -9 c12 -5 22 -17 22 -26 0
-12 -5 -15 -22 -9 -13 3 -52 14 -87 24 -69 18 -69 30 -1 49 48 14 61 13 89 -2z
m731 4 c0 -5 5 -10 10 -10 6 0 24 -9 39 -21 l29 -21 47 21 c55 25 66 26 59 8
-6 -16 -67 -47 -92 -47 -10 0 -23 5 -29 11 -7 7 -29 15 -50 19 -21 3 -37 11
-36 17 1 6 -3 10 -10 10 -7 0 -30 1 -52 3 l-40 3 50 7 c28 4 56 8 63 8 6 1 12
-2 12 -8z m2625 -40 c15 0 24 -4 20 -10 -9 -15 -58 -12 -83 6 -32 22 -27 37 8
19 16 -8 41 -15 55 -15z m135 7 l-55 -10 35 -8 c19 -4 49 -12 65 -18 25 -9 19
-10 -33 -5 -51 5 -68 2 -97 -15 -44 -26 -48 -7 -6 38 26 28 34 31 88 30 l58
-1 -55 -11z m1574 4 c5 -8 -22 -15 -96 -24 -28 -3 -40 17 -15 26 21 9 106 7
111 -2z m-4416 -28 c-10 -2 -26 -2 -35 0 -10 3 -2 5 17 5 19 0 27 -2 18 -5z
m140 -13 c31 -14 43 -30 21 -30 -16 0 -69 33 -69 43 0 5 3 7 8 5 4 -3 22 -11
40 -18z m2865 -27 c-7 -2 -21 -2 -30 0 -10 3 -4 5 12 5 17 0 24 -2 18 -5z
m-3256 -48 c-15 -14 -33 -25 -40 -25 -6 0 4 11 23 25 45 31 53 31 17 0z m4531
18 c-10 -2 -26 -2 -35 0 -10 3 -2 5 17 5 19 0 27 -2 18 -5z m-5435 -10 c-18
-2 -48 -2 -65 0 -18 2 -4 4 32 4 36 0 50 -2 33 -4z m-190 -10 c-7 -2 -19 -2
-25 0 -7 3 -2 5 12 5 14 0 19 -2 13 -5z m282 -14 c4 -6 -1 -16 -11 -24 -26
-18 -13 -28 20 -15 15 5 37 10 49 9 12 0 -4 -10 -35 -21 -32 -11 -58 -24 -58
-29 0 -5 -7 -9 -15 -9 -13 0 -14 4 -5 21 8 14 8 29 1 50 -10 28 -9 29 19 29
16 0 32 -5 35 -11z m3956 -13 c5 3 9 -6 9 -20 0 -14 5 -26 10 -26 6 0 4 -13
-5 -30 -8 -16 -15 -38 -15 -50 0 -11 -4 -28 -9 -38 -5 -9 -21 -44 -36 -77
-101 -227 -182 -344 -348 -503 -30 -29 -61 -50 -68 -47 -8 2 -27 -7 -44 -20
l-30 -25 25 1 c38 0 287 -28 445 -52 166 -25 339 -58 524 -101 109 -25 137
-29 153 -19 18 11 18 10 8 -9 -8 -14 -17 -19 -28 -15 -28 10 -165 35 -192 34
-23 0 -24 -1 -5 -10 13 -6 0 -7 -40 -3 -81 9 -187 32 -155 34 24 2 23 3 -5 10
-16 4 -41 8 -55 8 -23 1 -23 0 -5 -9 17 -8 17 -9 -5 -4 -14 2 -35 5 -48 5 -13
0 -21 3 -19 8 3 4 -16 8 -42 8 -25 1 -75 7 -111 12 -150 25 -624 65 -925 78
-93 4 -162 9 -153 12 16 3 16 5 3 18 -8 9 -15 20 -15 25 0 11 248 4 435 -12
183 -15 185 -15 252 35 229 173 394 437 453 721 13 66 22 85 28 67 2 -7 8 -10
13 -6z m-3716 -40 c28 -19 73 -40 99 -47 59 -15 45 -26 -43 -35 -46 -5 -61 -4
-61 6 0 17 -105 4 -137 -17 -21 -14 -25 -14 -42 1 -10 10 -32 21 -47 26 -23 7
-17 8 31 7 33 -1 78 2 100 6 24 5 58 3 87 -5 45 -11 76 -5 51 10 -6 4 -24 17
-39 29 -16 12 -38 29 -49 37 -39 30 -1 16 50 -18z m4790 -1 c16 -5 38 -17 49
-27 11 -10 49 -37 83 -60 35 -22 62 -43 59 -45 -3 -3 -33 15 -68 40 -35 24
-89 56 -120 72 -75 36 -76 40 -3 20z m-3950 -42 c14 -74 57 -190 117 -311 67
-134 184 -291 285 -382 l58 -51 133 6 c74 3 214 10 312 14 98 5 194 5 212 1
18 -4 28 -8 21 -9 -7 -1 -10 -8 -7 -16 10 -26 -33 -32 -281 -39 -432 -11 -754
-39 -1058 -92 -82 -14 -151 -24 -153 -21 -3 2 16 8 41 11 25 4 45 12 45 18 0
14 -94 3 -190 -23 -41 -11 -92 -22 -113 -24 -21 -3 -43 -7 -49 -11 -6 -4 -8
-3 -5 3 20 33 590 134 947 168 74 7 127 13 117 14 -10 0 -20 8 -23 16 -4 8 -9
13 -13 11 -10 -7 -52 37 -124 129 -98 125 -164 233 -212 346 -25 60 -35 85
-64 167 -6 17 -16 45 -23 61 -12 29 -5 66 11 57 5 -3 12 -23 16 -43z m3570
-72 c17 -19 16 -20 -11 -27 -29 -7 -74 11 -81 33 -2 6 11 28 29 49 l33 37 6
-36 c3 -20 14 -46 24 -56z m85 75 c0 -2 -13 -9 -30 -15 -35 -12 -41 -5 -7 9
25 10 37 12 37 6z m253 -15 c45 -6 62 -24 25 -26 -29 -2 -33 -14 -17 -43 20
-37 54 -52 117 -52 30 0 52 -4 52 -11 0 -14 -105 -1 -141 17 -14 7 -34 25 -43
39 -32 49 -161 86 -192 55 -15 -15 -130 -25 -138 -11 -11 17 3 34 18 21 9 -7
29 -7 67 1 30 6 83 11 118 10 48 -2 61 1 55 10 -5 9 -2 10 12 4 10 -4 41 -11
67 -14z m-4551 -18 c17 -39 16 -38 38 -18 17 16 20 16 20 2 0 -27 -41 -47 -97
-47 -29 0 -53 3 -53 8 0 4 14 15 30 24 18 10 30 25 30 38 0 29 18 25 32 -7z
m-556 4 c-10 -7 -32 -23 -48 -36 -16 -13 -32 -21 -35 -17 -8 8 -6 10 47 40 45
26 71 35 36 13z m-206 -117 c5 0 21 5 37 11 26 9 27 9 12 -6 -22 -22 -94 -31
-114 -15 -22 18 -18 46 7 64 21 15 23 14 36 -19 8 -19 18 -35 22 -35z m356 50
c-22 -11 -41 -18 -44 -16 -6 6 50 35 68 35 8 0 -3 -9 -24 -19z m5109 -11 c12
-5 -5 -6 -40 -2 -33 3 -66 9 -74 13 -18 10 88 0 114 -11z m-5136 -29 c-30 -15
-73 -31 -95 -34 -45 -7 -34 -1 66 37 87 33 97 32 29 -3z m-102 -6 c-3 -3 -12
-4 -19 -1 -8 3 -5 6 6 6 11 1 17 -2 13 -5z m5310 0 c-3 -3 -12 -4 -19 -1 -8 3
-5 6 6 6 11 1 17 -2 13 -5z m-21 -36 c6 -10 -29 -9 -81 2 -38 8 -37 8 18 7 32
-1 61 -5 63 -9z m-330 -149 c-8 -24 -18 -61 -21 -82 -4 -20 -11 -39 -15 -42
-13 -8 19 137 37 168 13 22 12 -5 -1 -44z m-4784 -46 c29 -33 40 -92 36 -184
-4 -82 -10 -110 -23 -97 -3 3 -1 17 5 32 14 37 11 163 -4 206 -7 19 -24 41
-37 47 -15 8 -18 13 -8 13 9 0 23 -8 31 -17z m4911 2 c-17 -7 -39 -25 -48 -38
-21 -33 -30 -122 -16 -171 7 -26 7 -36 0 -29 -14 14 -23 113 -15 157 8 43 59
96 90 96 16 -1 14 -4 -11 -15z m-4774 -53 c1 -7 -3 -10 -9 -7 -5 3 -10 18 -9
33 0 24 1 25 9 7 5 -11 9 -26 9 -33z m4591 -16 c-13 -35 -13 -56 0 -36 7 11
10 11 10 2 0 -15 -19 -55 -31 -62 -4 -3 -10 -17 -12 -30 -8 -38 -22 -70 -57
-130 -19 -30 -46 -80 -61 -110 -25 -49 -76 -121 -67 -95 2 6 40 84 85 175 45
91 94 200 109 243 15 43 29 76 31 74 2 -2 -1 -16 -7 -31z m-4555 -73 c9 -20
14 -41 12 -46 -2 -6 -13 13 -25 42 -11 28 -17 49 -11 46 5 -4 16 -23 24 -42z
m54 -133 c0 -9 -6 -4 -14 10 -8 14 -14 32 -14 40 0 9 6 4 14 -10 8 -14 14 -32
14 -40z m21 -35 c0 -8 -2 -15 -4 -15 -2 0 -6 7 -10 15 -3 8 -1 15 4 15 6 0 10
-7 10 -15z m4530 5 c0 -5 -4 -10 -10 -10 -5 0 -10 5 -10 10 0 6 5 10 10 10 6
0 10 -4 10 -10z m-4773 -62 c-3 -7 -5 -2 -5 12 0 14 2 19 5 13 2 -7 2 -19 0
-25z m4801 -15 c-10 -2 -26 -2 -35 0 -10 3 -2 5 17 5 19 0 27 -2 18 -5z m-65
-18 c-3 -9 -8 -14 -10 -11 -3 3 -2 9 2 15 9 16 15 13 8 -4z m-4545 -40 c-3 -3
-9 2 -12 12 -6 14 -5 15 5 6 7 -7 10 -15 7 -18z m2786 -59 c-4 -10 -17 -22
-30 -27 -23 -8 -24 -12 -24 -122 0 -63 -3 -148 -6 -189 -6 -70 -5 -76 17 -98
19 -18 20 -22 6 -16 -10 3 -39 6 -64 6 -40 0 -44 2 -32 16 8 9 15 51 17 102
l4 87 -72 -3 c-43 -2 -77 1 -83 7 -8 8 12 11 71 11 l82 0 0 101 0 101 -24 -4
c-18 -4 -26 0 -29 13 -6 24 3 32 21 17 7 -7 38 -12 69 -12 43 -1 57 3 65 17
12 22 21 17 12 -7z m-848 -64 l1 -77 -10 56 -10 55 -86 -4 c-47 -2 -90 -8 -95
-13 -12 -11 -21 -274 -12 -323 5 -25 15 -40 34 -51 26 -14 24 -14 -41 -15 -64
0 -67 1 -52 17 13 13 16 27 11 61 -3 25 -6 105 -6 179 l0 133 -75 -1 c-64 -1
-78 -5 -90 -22 -8 -12 -15 -29 -15 -39 0 -9 -4 -19 -9 -22 -10 -7 12 101 23
112 4 3 11 1 15 -7 6 -9 34 -11 112 -8 100 5 275 30 287 41 14 14 17 1 18 -72z
m-1936 52 c0 -2 -9 -4 -20 -4 -11 0 -20 4 -20 9 0 5 9 7 20 4 11 -3 20 -7 20
-9z m4490 -8 c0 -2 -8 -10 -17 -17 -16 -13 -17 -12 -4 4 13 16 21 21 21 13z
m135 -16 c-3 -5 -21 -9 -38 -9 l-32 2 35 7 c19 4 36 8 38 9 2 0 0 -3 -3 -9z
m-1605 -4 c0 -3 -4 -8 -10 -11 -5 -3 -10 -1 -10 4 0 6 5 11 10 11 6 0 10 -2
10 -4z m-3125 -26 c10 -11 16 -20 13 -20 -3 0 -13 9 -23 20 -10 11 -16 20 -13
20 3 0 13 -9 23 -20z m3162 14 c-3 -3 -12 -4 -19 -1 -8 3 -5 6 6 6 11 1 17 -2
13 -5z m78 -20 l52 -17 -14 -46 c-8 -25 -17 -91 -20 -146 -7 -125 5 -155 72
-180 40 -16 49 -16 82 -4 21 9 45 27 55 45 23 39 45 150 50 244 l3 75 -30 6
-30 7 30 1 c52 1 58 -9 50 -85 -10 -102 -34 -215 -54 -249 -9 -16 -33 -41 -52
-53 -29 -21 -43 -23 -96 -19 -127 10 -147 46 -137 252 6 132 5 147 -11 165
-22 24 -16 25 50 4z m-1907 -21 c42 -31 51 -68 26 -111 -26 -45 -86 -88 -134
-97 -19 -3 -46 -9 -58 -12 -19 -5 -23 -2 -20 13 2 14 17 21 63 29 58 10 61 12
83 56 19 38 21 50 11 77 -18 52 -56 63 -144 41 l-44 -11 5 -62 c8 -92 34 -277
39 -286 2 -4 19 -11 37 -15 41 -9 30 -12 -48 -17 -49 -3 -61 -1 -57 9 3 8 0
73 -6 146 -19 217 -20 223 -44 235 -19 9 -16 11 23 12 25 1 65 5 90 10 71 13
147 6 178 -17z m2917 17 c13 -6 15 -9 5 -9 -8 0 -22 4 -30 9 -18 12 -2 12 25
0z m340 0 c-3 -5 -16 -10 -28 -9 -20 1 -20 2 3 9 14 4 26 8 28 9 2 1 0 -3 -3
-9z m185 -20 c-12 -16 -24 -30 -26 -30 -3 0 4 14 16 30 12 17 24 30 26 30 3 0
-4 -13 -16 -30z m-303 4 c-3 -3 -12 -4 -19 -1 -8 3 -5 6 6 6 11 1 17 -2 13 -5z
m248 -34 c3 -5 -3 -10 -15 -10 -12 0 -18 5 -15 10 3 6 10 10 15 10 5 0 12 -4
15 -10z m-3429 -46 c-8 -21 -11 -17 -20 21 -7 28 -6 29 10 13 10 -10 14 -23
10 -34z m2501 25 c123 -30 155 -42 187 -70 43 -37 58 -100 30 -130 -9 -10 -22
-19 -29 -19 -6 0 -19 -6 -29 -13 -17 -12 -14 -19 31 -98 27 -46 57 -96 67
-111 10 -16 14 -28 9 -28 -20 0 -46 29 -106 120 -42 64 -73 100 -96 112 -47
24 -47 26 7 20 44 -4 51 -2 71 24 60 76 30 146 -69 156 l-35 3 -6 -65 c-3 -36
-13 -88 -23 -117 -21 -62 -20 -62 70 -173 68 -84 72 -110 7 -39 -42 45 -93
117 -93 131 0 5 -4 6 -10 3 -5 -3 -10 -24 -10 -45 0 -29 6 -43 22 -54 19 -13
20 -16 5 -16 -24 0 -87 27 -87 37 0 4 14 60 31 123 17 63 33 138 36 167 5 50
4 52 -28 72 -39 24 -24 27 48 10z m-3157 -94 c46 -109 119 -256 138 -277 11
-13 32 -18 76 -19 l61 -2 -65 -8 c-36 -5 -85 -13 -110 -18 -41 -8 -43 -8 -23
6 l22 14 -36 62 c-20 34 -37 63 -38 65 -1 2 -35 -5 -75 -14 -66 -15 -73 -19
-86 -49 -23 -55 -29 -116 -13 -126 10 -6 7 -9 -11 -9 -14 0 -36 -3 -50 -6
l-25 -6 22 19 c23 18 105 242 139 377 21 84 23 91 32 80 5 -5 23 -45 42 -89z
m4925 -35 c-3 -5 -18 -10 -33 -9 l-27 1 25 8 c35 11 42 11 35 0z m-4191 -81
c27 -34 60 -66 73 -72 13 -5 23 -14 23 -18 0 -32 -91 -6 -132 39 -22 24 -68
97 -68 108 0 2 12 4 28 4 21 0 38 -13 76 -61z m4087 42 c-7 -5 -11 -13 -8 -18
3 -5 -7 -8 -24 -5 -38 6 -37 15 4 28 35 10 49 8 28 -5z m59 -31 c0 -19 -5 -30
-14 -30 -8 0 -16 13 -18 30 -4 24 -1 30 14 30 13 0 18 -8 18 -30z m-6205 10
c-26 -11 -45 -12 -45 -2 0 4 15 8 33 9 26 2 28 0 12 -7z m6235 -30 c0 -5 -4
-10 -10 -10 -5 0 -10 5 -10 10 0 6 5 10 10 10 6 0 10 -4 10 -10z m-6287 -27
c-7 -2 -19 -2 -25 0 -7 3 -2 5 12 5 14 0 19 -2 13 -5z m14 -38 c0 -18 -19 -15
-25 3 -2 7 3 12 11 12 7 0 14 -7 14 -15z m-17 -45 c-8 -5 -22 -9 -30 -9 -10 0
-8 3 5 9 27 12 43 12 25 0z m6220 -20 c0 -5 -5 -10 -11 -10 -5 0 -7 5 -4 10 3
6 8 10 11 10 2 0 4 -4 4 -10z m-6287 -15 c4 -8 2 -17 -3 -20 -6 -4 -10 3 -10
14 0 25 6 27 13 6z m47 -11 c0 -8 -4 -12 -10 -9 -5 3 -10 10 -10 16 0 5 5 9
10 9 6 0 10 -7 10 -16z m4445 6 c25 -11 -1 -11 -35 0 -20 6 -21 8 -5 8 11 0
29 -3 40 -8z m-1701 -52 c-28 -22 -35 -23 -284 -24 -140 0 -289 -2 -330 -4
-66 -2 -70 -4 -35 -10 27 -5 11 -6 -49 -5 -49 2 -102 -1 -118 -6 -16 -4 -102
-15 -191 -25 -88 -9 -181 -22 -205 -29 -24 -8 -51 -11 -60 -8 -8 4 -13 2 -10
-3 6 -8 -25 -10 -69 -4 -45 6 283 62 522 89 301 35 466 46 709 49 l149 2 -29
-22z m1106 -3 c249 -23 481 -63 810 -138 136 -31 86 -33 -63 -2 -70 14 -140
25 -157 25 -16 0 -30 4 -30 8 0 5 -14 9 -30 9 -17 0 -40 4 -53 10 -30 14 -156
31 -242 33 -38 0 -110 8 -159 16 -66 11 -119 13 -204 8 -85 -5 -113 -4 -108 5
5 7 -6 11 -37 11 -53 0 -157 18 -177 32 -20 12 234 3 450 -17z m-3870 -4 c0
-17 -18 -21 -24 -6 -3 9 0 15 9 15 8 0 15 -4 15 -9z m40 -26 c0 -8 -4 -15 -10
-15 -5 0 -10 7 -10 15 0 8 5 15 10 15 6 0 10 -7 10 -15z m2217 -1 c-3 -3 -12
-4 -19 -1 -8 3 -5 6 6 6 11 1 17 -2 13 -5z m1241 -29 c-3 -3 -9 2 -12 12 -6
14 -5 15 5 6 7 -7 10 -15 7 -18z m22 -43 c0 -15 -2 -15 -10 -2 -13 20 -13 33
0 25 6 -3 10 -14 10 -23z m443 8 c3 -13 0 -20 -9 -20 -7 0 -11 6 -8 14 4 11
-4 16 -33 19 l-38 4 41 1 c34 2 43 -2 47 -18z m-1483 -49 c49 -29 101 -27 139
5 29 24 44 21 19 -4 -22 -22 -2 -13 28 13 41 35 44 21 4 -20 -19 -19 -30 -35
-24 -35 29 -1 -23 -17 -60 -19 -76 -3 -156 43 -180 104 -7 18 -6 18 16 -2 13
-11 39 -30 58 -42z m259 22 c-10 -21 -19 -43 -19 -49 0 -18 -65 -84 -81 -84
-11 0 -11 2 1 10 10 7 1 8 -31 4 -31 -4 -55 -2 -73 8 -26 14 -25 14 33 10 66
-5 60 -8 145 92 22 25 40 46 42 46 1 0 -7 -17 -17 -37z m909 -23 c44 -17 101
-16 139 3 25 13 32 14 36 3 16 -42 -192 -79 -234 -40 -10 9 -19 13 -19 8 1
-33 106 -60 155 -40 13 5 9 -1 -10 -18 -36 -31 -88 -34 -128 -7 -16 10 -28 21
-28 25 1 3 -8 15 -19 26 -32 32 -25 66 11 62 4 -1 4 8 1 20 -5 21 -4 21 29 -4
19 -13 49 -31 67 -38z m-3683 40 c-3 -5 -20 -10 -36 -10 -18 0 -28 4 -24 10 3
6 20 10 36 10 18 0 28 -4 24 -10z m3545 -50 c5 -19 6 -29 1 -24 -10 10 -26 72
-17 63 4 -4 11 -21 16 -39z m-2150 20 c0 -5 -7 -10 -15 -10 -8 0 -15 5 -15 10
0 6 7 10 15 10 8 0 15 -4 15 -10z m53 3 c-7 -2 -21 -2 -30 0 -10 3 -4 5 12 5
17 0 24 -2 18 -5z m2514 1 c-3 -3 -12 -4 -19 -1 -8 3 -5 6 6 6 11 1 17 -2 13
-5z m-2624 -21 c-7 -2 -19 -2 -25 0 -7 3 -2 5 12 5 14 0 19 -2 13 -5z m-80
-20 c-7 -2 -19 -2 -25 0 -7 3 -2 5 12 5 14 0 19 -2 13 -5z m-46 -9 c-3 -3 -12
-4 -19 -1 -8 3 -5 6 6 6 11 1 17 -2 13 -5z m2621 -41 c-40 -93 -84 -135 -156
-153 -51 -12 -109 0 -97 20 3 5 -2 10 -12 11 -10 0 3 6 30 13 26 7 57 21 68
32 16 14 21 15 17 4 -2 -8 -14 -20 -26 -26 -12 -6 -19 -14 -15 -17 10 -10 43
-8 43 2 0 5 16 9 36 9 39 0 51 11 89 85 27 51 42 64 23 20z m-1195 -40 c-7 -2
-19 -2 -25 0 -7 3 -2 5 12 5 14 0 19 -2 13 -5z m47 -68 c19 -4 46 -12 60 -18
l25 -10 -25 -7 c-70 -22 -165 0 -200 47 -12 15 -12 16 0 6 8 -7 22 -13 33 -13
17 0 17 1 3 16 -9 8 -16 19 -16 23 0 21 16 18 49 -8 20 -16 52 -32 71 -36z
m-3038 30 c40 -9 141 -40 224 -70 226 -83 324 -105 458 -105 69 0 129 6 160
15 30 9 64 12 89 8 l40 -6 -64 -30 c-82 -38 -204 -60 -293 -53 -107 10 -195
33 -405 108 -106 38 -234 77 -283 86 -80 16 -108 32 -54 32 20 0 20 0 0 15
-18 13 -17 14 18 15 20 0 70 -7 110 -15z m7206 9 c25 -7 30 -24 7 -24 -46 0
-429 -124 -497 -160 -23 -13 -168 -49 -259 -65 -92 -16 -181 -7 -284 30 l-70
25 53 -4 c30 -2 48 0 41 5 -26 15 0 21 38 8 58 -20 195 -16 291 9 45 12 142
45 215 73 237 91 296 108 372 108 39 1 80 -2 93 -5z m-2183 -171 c-4 -10 -9
-29 -12 -43 -2 -13 -8 -27 -13 -30 -5 -3 -16 -36 -26 -74 -11 -44 -27 -79 -43
-96 -14 -14 -18 -16 -7 -4 10 13 24 47 31 76 6 29 15 63 19 74 5 18 2 23 -20
28 -14 4 -31 3 -37 -2 -7 -6 -26 -13 -42 -16 -45 -10 -85 -47 -95 -86 l-8 -35
-1 32 c-1 25 7 38 34 60 43 36 123 66 159 59 20 -4 29 0 32 12 12 37 24 62 30
62 3 0 3 -8 -1 -17z m-190 -3 c-3 -5 -15 -10 -26 -10 -10 0 -19 -4 -19 -10 0
-5 -7 -10 -15 -10 -8 0 -15 -5 -15 -10 0 -6 -26 -22 -57 -37 -32 -15 -60 -29
-63 -33 -3 -3 -12 -6 -20 -8 -8 -2 -16 -8 -18 -13 -2 -5 -10 -9 -18 -9 -8 0
-14 -4 -14 -10 0 -5 -9 -10 -20 -10 -12 0 -42 -10 -68 -23 -26 -13 -67 -29
-92 -37 -25 -7 -49 -17 -54 -22 -6 -4 -25 -8 -43 -8 -18 0 -33 -4 -33 -10 0
-5 -15 -10 -32 -9 -25 0 -5 10 77 38 172 59 316 124 455 207 55 33 87 43 75
24z m-2950 -19 c3 -5 1 -12 -5 -16 -5 -3 -10 1 -10 9 0 18 6 21 15 7z m100 -9
c-3 -3 -11 0 -18 7 -9 10 -8 11 6 5 10 -3 15 -9 12 -12z m315 -17 c7 -8 17
-12 23 -8 6 3 7 1 3 -5 -4 -7 9 -15 34 -22 22 -6 40 -15 40 -20 0 -4 13 -11
30 -15 28 -6 47 -21 38 -31 -5 -5 -130 60 -178 92 -20 14 -28 24 -19 24 9 0
22 -7 29 -15z m-145 -10 c6 -2 -20 -4 -57 -4 -37 -1 -69 3 -72 7 -4 8 106 5
129 -3z m-239 -13 c-16 -2 -32 0 -37 5 -5 5 7 7 29 4 34 -5 35 -6 8 -9z m247
-52 c-30 -12 -31 -70 -4 -123 15 -30 16 -35 4 -25 -20 16 -43 70 -43 99 0 27
27 59 49 58 10 0 8 -3 -6 -9z m92 -20 c10 -11 16 -20 13 -20 -3 0 -13 9 -23
20 -10 11 -16 20 -13 20 3 0 13 -9 23 -20z m2640 -5 c14 -13 25 -29 25 -35 0
-63 -103 -149 -183 -152 -56 -3 -90 23 -77 57 7 19 8 18 15 -5 9 -31 22 -40
57 -40 36 0 58 9 58 25 0 8 4 17 10 20 6 4 7 -1 3 -10 -5 -16 -3 -16 23 -2 38
20 71 56 79 87 7 28 -23 64 -60 73 -18 4 -17 5 3 6 13 0 34 -10 47 -24z
m-2655 -26 c0 -6 -8 -8 -19 -4 -13 4 -23 0 -30 -12 -6 -10 -11 -13 -11 -7 0
16 22 34 42 34 10 0 18 -5 18 -11z m-230 -56 c0 -7 -39 17 -46 28 -3 6 5 3 20
-6 14 -10 26 -19 26 -22z m280 4 c0 -18 -7 -42 -16 -53 -15 -18 -15 -18 -5 3
6 12 11 35 11 52 0 17 2 31 5 31 3 0 5 -15 5 -33z m2463 16 c-7 -2 -19 -2 -25
0 -7 3 -2 5 12 5 14 0 19 -2 13 -5z m-2332 -48 c1 -17 -2 -38 -6 -47 -9 -22
-2 -22 101 -2 78 15 82 15 155 -6 66 -19 133 -51 209 -99 l25 -15 -19 22 c-16
19 -17 22 -4 17 9 -4 25 -19 34 -33 10 -15 42 -56 72 -92 l55 -65 -64 65 c-35
36 -89 78 -119 94 -30 16 -67 39 -82 51 -14 12 -56 30 -92 40 -59 16 -77 17
-169 6 -56 -7 -103 -14 -104 -15 -1 -1 17 -24 40 -51 40 -47 40 -48 10 -27
-18 13 -40 36 -50 52 -9 17 -24 30 -32 30 -10 0 -8 5 8 16 21 15 23 22 17 62
-4 30 -3 43 4 36 5 -5 10 -23 11 -39z m2204 -1 c-20 -48 -19 -81 3 -93 10 -7
12 -11 4 -11 -7 0 -28 11 -45 24 -48 36 -109 49 -168 37 -66 -14 -82 -13 -39
4 55 21 121 18 173 -9 42 -21 47 -22 47 -6 0 20 28 90 35 90 3 0 -2 -16 -10
-36z m-2539 -12 c-5 -4 -66 26 -66 33 0 3 16 -3 35 -12 19 -9 33 -18 31 -21z
m2094 -12 c-8 -5 -22 -10 -30 -10 -13 0 -13 1 0 10 8 5 22 10 30 10 13 0 13
-1 0 -10z m-1870 -48 c-13 -5 -84 16 -105 32 -12 8 6 6 47 -8 36 -11 62 -22
58 -24z m1969 -28 c-70 -52 -69 -55 24 -74 32 -6 56 -14 53 -17 -3 -3 -44 2
-92 12 l-87 19 -44 -48 c-35 -36 -44 -53 -40 -72 3 -16 0 -23 -7 -21 -23 8
-17 47 11 72 15 13 23 25 17 25 -6 0 -19 -9 -29 -20 -10 -11 -30 -20 -44 -19
-24 0 -24 1 8 13 39 14 71 49 71 80 0 17 2 18 10 6 6 -9 6 -18 0 -24 -6 -6
-10 -17 -10 -25 0 -11 6 -9 20 9 11 14 18 30 15 37 -3 9 2 10 19 3 19 -7 34 0
86 41 35 27 68 49 73 49 5 0 -19 -21 -54 -46z m-1674 -63 c20 -10 20 -10 -1
-11 -12 0 -33 15 -50 38 -47 58 -51 72 -8 25 22 -23 48 -46 59 -52z m63 68
c-7 -5 -21 -9 -31 -9 -14 0 -15 3 -5 13 7 8 21 12 31 9 15 -4 16 -7 5 -13z
m1844 -2 c-12 -13 -22 -29 -22 -36 0 -6 -13 -17 -30 -22 -16 -6 -28 -15 -25
-19 7 -11 -22 -21 -40 -14 -11 5 -13 10 -5 19 14 16 -8 25 -62 25 -53 0 -41
12 14 15 24 1 50 4 58 7 8 3 12 3 9 1 -4 -2 -5 -12 -2 -23 5 -18 6 -17 40 2
19 12 40 32 46 45 5 12 17 23 25 23 12 0 10 -5 -6 -23z m-47 3 c-3 -5 -15 -10
-26 -10 -10 0 -19 5 -19 10 0 6 12 10 26 10 14 0 23 -4 19 -10z m91 -38 c-15
-15 -15 -15 -4 10 7 15 15 23 17 17 2 -6 -4 -18 -13 -27z m193 34 c-2 -2 -26
-13 -54 -24 -27 -11 -59 -23 -70 -27 -11 -5 -17 -5 -13 -1 7 9 119 55 132 56
5 0 7 -2 5 -4z m-2001 -33 c-10 -2 -26 -2 -35 0 -10 3 -2 5 17 5 19 0 27 -2
18 -5z m-323 -39 c151 -54 156 -56 152 -60 -4 -4 -221 72 -246 86 -28 16 -9
11 94 -26z m530 26 c3 -5 18 -11 33 -11 18 -1 21 -3 9 -6 -24 -6 -67 5 -67 17
0 13 17 13 25 0z m-343 -50 c22 0 25 4 22 23 l-5 22 12 -22 c10 -18 15 -20 38
-11 27 10 138 3 175 -12 13 -5 -1 -6 -34 -2 -60 6 -68 6 -119 4 -28 -2 -32 -5
-28 -21 3 -14 1 -18 -9 -14 -8 3 -14 9 -14 14 0 5 -14 9 -31 9 -34 0 -119 38
-119 52 0 5 20 -3 43 -17 24 -14 55 -25 69 -25z m1988 35 c0 -10 -253 -115
-274 -115 -25 1 181 91 272 119 1 1 2 -1 2 -4z m-702 -24 c-42 -9 -88 -36 -88
-53 0 -6 -3 -8 -7 -5 -8 9 26 47 52 58 11 4 34 8 50 7 28 0 27 -1 -7 -7z m72
-52 c0 -10 -4 -21 -10 -24 -6 -3 -10 5 -10 19 0 13 -3 33 -6 43 -5 16 -4 16
10 -1 9 -11 16 -28 16 -37z m-1150 17 c0 -2 -9 -6 -20 -9 -11 -3 -18 -1 -14 4
5 9 34 13 34 5z m95 -6 c3 -6 -1 -7 -9 -4 -18 7 -21 14 -7 14 6 0 13 -4 16
-10z m119 -14 c-10 -8 -21 -12 -23 -10 -3 2 4 11 15 18 10 8 21 12 23 10 3 -2
-4 -11 -15 -18z m1291 15 c-5 -10 -105 -12 -105 -3 0 4 25 8 55 8 30 1 53 -2
50 -5z m-118 -7 c-3 -3 -12 -4 -19 -1 -8 3 -5 6 6 6 11 1 17 -2 13 -5z m-1302
-24 c3 -5 2 -10 -4 -10 -5 0 -13 5 -16 10 -3 6 -2 10 4 10 5 0 13 -4 16 -10z
m-127 -29 c41 -11 77 -22 80 -26 7 -7 -2 -5 -113 25 -38 10 -63 19 -55 19 8 0
48 -8 88 -18z m1092 -20 c17 -6 19 -10 8 -10 -9 -1 -27 9 -40 22 -13 12 -17
17 -8 10 8 -7 27 -16 40 -22z m430 19 c-8 -5 -22 -10 -30 -10 -13 0 -13 1 0
10 8 5 22 10 30 10 13 0 13 -1 0 -10z m-295 -20 c-3 -5 -14 -10 -23 -10 -15 0
-15 2 -2 10 20 13 33 13 25 0z m242 4 c-3 -3 -12 -4 -19 -1 -8 3 -5 6 6 6 11
1 17 -2 13 -5z m-40 -10 c-3 -3 -12 -4 -19 -1 -8 3 -5 6 6 6 11 1 17 -2 13 -5z
m-1300 -10 c-3 -3 -12 -4 -19 -1 -8 3 -5 6 6 6 11 1 17 -2 13 -5z m1178 -14
c-49 -10 -117 -21 -150 -24 -60 -5 -60 -5 15 10 132 26 164 32 195 32 17 0
-10 -8 -60 -18z m-928 -26 c-3 -3 -12 -4 -19 -1 -8 3 -5 6 6 6 11 1 17 -2 13
-5z"/>
<path d="M3770 7350 c0 -5 5 -10 11 -10 5 0 7 5 4 10 -3 6 -8 10 -11 10 -2 0
-4 -4 -4 -10z"/>
<path d="M3705 7079 c-4 -6 -5 -12 -2 -15 2 -3 7 2 10 11 7 17 1 20 -8 4z"/>
<path d="M3735 6870 c-3 -5 -1 -10 4 -10 6 0 11 5 11 10 0 6 -2 10 -4 10 -3 0
-8 -4 -11 -10z"/>
<path d="M2446 6294 c-5 -14 -4 -15 9 -4 17 14 19 20 6 20 -5 0 -12 -7 -15
-16z"/>
<path d="M5005 6403 c6 -2 9 -19 7 -38 -4 -31 2 -41 50 -89 45 -45 58 -53 80
-49 l27 5 -35 50 c-40 59 -40 62 -14 88 19 19 19 19 -15 26 -60 11 -79 -20
-49 -77 8 -17 13 -33 10 -36 -3 -4 -15 15 -27 41 -19 44 -19 49 -4 66 15 16
14 17 -12 17 -15 0 -23 -2 -18 -4z m91 -81 c-9 -9 -37 8 -31 18 5 8 11 7 21
-1 8 -6 12 -14 10 -17z m40 -64 c5 -7 3 -8 -6 -3 -10 6 -12 4 -7 -8 3 -10 2
-17 -3 -17 -11 0 -13 23 -3 33 9 9 11 9 19 -5z"/>
<path d="M5532 6035 c0 -16 2 -22 5 -12 2 9 2 23 0 30 -3 6 -5 -1 -5 -18z"/>
<path d="M5524 5979 c-4 -7 -22 -9 -47 -6 -27 4 -36 2 -26 -4 24 -15 89 -11
89 6 0 18 -6 19 -16 4z"/>
<path d="M3804 6133 c4 -29 -19 -63 -43 -63 -14 0 -19 36 -8 56 10 18 10 18
-12 0 -20 -18 -20 -21 -5 -43 8 -14 13 -27 10 -30 -6 -7 -31 17 -39 37 -4 10
-6 8 -6 -7 -1 -13 8 -27 20 -33 17 -10 27 -7 59 15 43 30 57 63 35 84 -13 13
-14 11 -11 -16z"/>
<path d="M3775 6140 c3 -5 8 -10 11 -10 2 0 4 5 4 10 0 6 -5 10 -11 10 -5 0
-7 -4 -4 -10z"/>
<path d="M3802 6061 c-18 -18 -31 -35 -29 -37 2 -2 19 12 37 31 18 19 32 36
29 38 -2 1 -19 -13 -37 -32z"/>
<path d="M3770 5870 c0 -5 5 -10 11 -10 5 0 7 5 4 10 -3 6 -8 10 -11 10 -2 0
-4 -4 -4 -10z"/>
<path d="M2825 5630 c10 -11 20 -20 23 -20 3 0 -3 9 -13 20 -10 11 -20 20 -23
20 -3 0 3 -9 13 -20z"/>
<path d="M3343 5643 c9 -2 25 -2 35 0 9 3 1 5 -18 5 -19 0 -27 -2 -17 -5z"/>
<path d="M3192 5628 c-30 -5 -51 -12 -49 -14 5 -6 137 16 137 22 0 6 -26 3
-88 -8z"/>
<path d="M3390 5620 c-19 -4 -111 -21 -205 -36 -117 -20 -162 -30 -145 -35 38
-11 80 -10 80 1 0 19 47 10 74 -15 32 -30 47 -33 21 -5 -16 18 -16 20 -1 36 9
9 18 15 19 13 1 -2 8 -19 14 -37 13 -38 2 -48 -42 -40 -13 3 -22 1 -19 -3 3
-5 -2 -9 -10 -9 -19 0 -21 26 -3 33 9 4 9 6 -1 6 -23 2 -51 -19 -46 -33 4 -10
-12 -19 -56 -33 -74 -22 -90 -43 -93 -122 l-1 -58 -27 9 c-29 10 -90 68 -71
68 7 0 12 -5 12 -10 0 -11 59 -50 75 -50 6 0 -5 9 -23 20 -18 11 -30 25 -27
30 3 6 1 10 -4 10 -6 0 -11 4 -11 8 0 4 15 6 33 4 32 -4 34 -2 44 45 8 32 8
51 2 58 -7 7 -8 3 -4 -10 6 -19 6 -19 -9 -1 -13 16 -13 20 -1 33 9 8 20 11 27
6 7 -4 18 -8 23 -8 6 0 9 -8 9 -17 -1 -13 4 -14 35 -6 51 14 56 23 26 46 -34
27 -125 24 -136 -5 -3 -10 -15 -18 -25 -18 -12 0 -22 -11 -29 -32 -6 -18 -14
-35 -17 -39 -6 -6 -6 0 6 58 9 40 68 79 159 104 45 12 75 23 67 23 -9 1 -47
-8 -85 -18 -44 -13 -74 -16 -79 -10 -6 5 -21 9 -33 9 -20 0 -22 -3 -14 -18 7
-14 4 -31 -15 -67 -47 -93 -28 -182 47 -221 48 -24 69 -11 69 44 0 66 8 86 38
104 38 22 207 57 332 68 139 13 228 27 181 29 -27 1 -32 4 -23 13 17 17 15 38
-5 61 -18 19 -17 19 17 12 19 -4 40 -11 46 -17 7 -5 16 -8 20 -6 18 4 54 -14
54 -27 0 -16 14 -49 36 -85 15 -25 15 -24 9 15 -16 100 -57 128 -190 132 -49
1 -106 -2 -125 -7z m107 -25 l28 -25 -24 -20 c-41 -35 -118 -18 -109 25 3 19
41 45 65 45 7 0 25 -11 40 -25z m-129 -23 c2 -12 13 -29 25 -37 l21 -15 -24 0
c-17 1 -32 12 -47 35 -11 18 -18 36 -15 40 13 12 37 -1 40 -23z m-28 -38 c0
-8 -9 -14 -19 -14 -11 0 -26 -3 -34 -6 -18 -6 -31 57 -14 68 14 9 67 -29 67
-48z m-269 -20 c10 -13 10 -17 -1 -24 -15 -9 -50 14 -50 32 0 14 37 9 51 -8z
m-101 -88 c0 -6 -5 -18 -10 -26 -8 -13 -12 -12 -31 7 -16 16 -20 28 -15 48 l7
28 25 -23 c13 -13 24 -28 24 -34z"/>
<path d="M3447 5569 c-18 -20 -17 -20 10 -17 16 2 28 9 28 17 0 23 -19 23 -38
0z"/>
<path d="M3303 5545 c0 -8 7 -15 15 -15 12 0 12 3 2 15 -7 8 -13 15 -15 15 -1
0 -2 -7 -2 -15z"/>
<path d="M2930 5430 c6 -11 13 -20 16 -20 2 0 0 9 -6 20 -6 11 -13 20 -16 20
-2 0 0 -9 6 -20z"/>
<path d="M3616 5562 c3 -14 10 -29 16 -33 7 -4 7 -9 -1 -13 -16 -10 -14 -23 5
-30 15 -6 15 -4 3 11 -12 15 -12 16 4 10 19 -7 25 17 6 28 -6 4 -8 13 -6 19 3
7 -3 18 -13 24 -17 10 -18 8 -14 -16z"/>
<path d="M4108 5663 c6 -2 18 -2 25 0 6 3 1 5 -13 5 -14 0 -19 -2 -12 -5z"/>
<path d="M4218 5653 c7 -3 16 -2 19 1 4 3 -2 6 -13 5 -11 0 -14 -3 -6 -6z"/>
<path d="M4288 5643 c7 -3 16 -2 19 1 4 3 -2 6 -13 5 -11 0 -14 -3 -6 -6z"/>
<path d="M4375 5625 c28 -8 77 -19 110 -25 33 -6 81 -16 106 -22 29 -7 52 -8
62 -1 13 6 -9 12 -80 21 -54 7 -123 19 -153 27 -30 8 -64 15 -75 14 -11 0 3
-7 30 -14z"/>
<path d="M3915 5600 c3 -5 15 -10 26 -10 11 0 17 5 14 10 -3 6 -15 10 -26 10
-11 0 -17 -4 -14 -10z"/>
<path d="M4568 5489 c-35 -20 -9 -89 33 -89 12 0 12 -2 0 -9 -9 -6 -11 -14 -4
-26 9 -15 12 -13 22 15 16 48 14 85 -7 103 -21 20 -21 20 -44 6z m19 -35 c4
-12 7 -13 14 -3 4 8 11 10 15 6 4 -4 1 -14 -7 -23 -19 -19 -49 -8 -49 17 0 23
18 25 27 3z"/>
<path d="M4566 5373 c10 -40 14 -41 14 -5 0 18 -5 32 -10 32 -6 0 -8 -11 -4
-27z"/>
<path d="M4572 5306 c-7 -16 -8 -26 -1 -26 12 0 22 25 17 41 -2 6 -9 0 -16
-15z"/>
<path d="M4087 5603 c-13 -13 -7 -53 8 -53 8 0 15 7 15 16 0 8 -4 13 -9 10 -5
-4 -7 3 -4 14 5 20 2 25 -10 13z"/>
<path d="M4131 5589 c20 -20 20 -22 3 -40 -16 -18 -16 -19 14 -19 25 0 29 3
25 19 -6 23 -40 61 -53 61 -6 0 -1 -9 11 -21z"/>
<path d="M2750 5179 c0 -5 5 -7 10 -4 6 3 10 8 10 11 0 2 -4 4 -10 4 -5 0 -10
-5 -10 -11z"/>
<path d="M1886 4029 c-22 -5 -42 -12 -44 -14 -9 -8 131 -66 152 -63 31 4 34
52 4 72 -25 18 -53 19 -112 5z"/>
<path d="M5060 4824 c0 -6 7 -19 16 -30 14 -18 14 -18 3 6 -14 31 -19 36 -19
24z"/>
<path d="M5111 4704 c0 -11 3 -14 6 -6 3 7 2 16 -1 19 -3 4 -6 -2 -5 -13z"/>
<path d="M5232 4360 c0 -19 2 -27 5 -17 2 9 2 25 0 35 -3 9 -5 1 -5 -18z"/>
<path d="M5230 4246 c0 -31 6 -34 13 -6 3 11 1 23 -4 26 -5 3 -9 -6 -9 -20z"/>
<path d="M5024 4151 c9 -17 26 -37 39 -45 30 -19 156 -48 192 -44 24 2 9 10
-70 36 -55 19 -111 42 -125 51 -51 35 -53 35 -36 2z"/>
<path d="M5549 4049 c-2 -10 -9 -36 -14 -55 -4 -13 0 -25 10 -34 13 -11 27 -9
88 14 40 15 89 35 110 44 l37 17 -52 1 c-29 1 -81 5 -115 9 -35 4 -63 6 -64 4z
m28 -15 c-3 -3 -12 -4 -19 -1 -8 3 -5 6 6 6 11 1 17 -2 13 -5z"/>
<path d="M6480 3990 c-9 -6 -10 -10 -3 -10 6 0 15 5 18 10 8 12 4 12 -15 0z"/>
<path d="M5978 4023 c12 -2 30 -2 40 0 9 3 -1 5 -23 4 -22 0 -30 -2 -17 -4z"/>
<path d="M5508 2873 c6 -2 18 -2 25 0 6 3 1 5 -13 5 -14 0 -19 -2 -12 -5z"/>
<path d="M2000 2639 c-10 -40 -36 -127 -47 -156 -4 -10 6 -9 37 2 23 8 51 15
61 15 10 0 20 4 23 8 5 8 -44 156 -56 167 -4 4 -12 -13 -18 -36z"/>
<path d="M3625 8300 c3 -5 13 -10 21 -10 8 0 12 5 9 10 -3 6 -13 10 -21 10 -8
0 -12 -4 -9 -10z"/>
<path d="M3620 8262 c0 -5 16 -16 36 -25 27 -13 34 -22 30 -35 -6 -16 -5 -16
7 0 21 26 47 2 54 -49 6 -47 -12 -67 -34 -38 -17 24 -16 30 2 49 8 8 11 17 6
20 -11 7 -26 -11 -35 -40 -15 -48 55 -74 76 -29 17 37 -20 112 -59 121 -16 4
-40 13 -55 21 -16 7 -28 10 -28 5z"/>
<path d="M3826 8198 l-17 -33 20 24 c18 20 27 41 18 41 -1 0 -11 -15 -21 -32z"/>
<path d="M3785 8130 c-7 -21 9 -50 28 -50 5 0 3 8 -7 19 -9 10 -14 25 -10 35
3 9 4 16 1 16 -3 0 -9 -9 -12 -20z"/>
<path d="M3655 8090 c-3 -6 1 -7 9 -4 18 7 21 14 7 14 -6 0 -13 -4 -16 -10z"/>
<path d="M3760 7714 l-25 -14 30 6 c35 6 61 -15 75 -62 8 -28 8 -29 9 -4 2 54
-49 97 -89 74z"/>
<path d="M3797 7669 c4 -14 0 -19 -15 -19 -12 0 -24 -4 -27 -10 -3 -5 -1 -10
5 -10 7 0 10 -7 6 -15 -6 -17 7 -19 35 -5 22 13 26 65 5 73 -10 4 -12 0 -9
-14z"/>
<path d="M3690 7626 c0 -2 8 -10 18 -17 15 -13 16 -12 3 4 -13 16 -21 21 -21
13z"/>
<path d="M3795 7590 c-3 -6 1 -7 9 -4 18 7 21 14 7 14 -6 0 -13 -4 -16 -10z"/>
<path d="M3758 7583 c7 -3 16 -2 19 1 4 3 -2 6 -13 5 -11 0 -14 -3 -6 -6z"/>
<path d="M3690 7570 c19 -4 44 -10 55 -14 13 -5 11 -2 -5 8 -14 8 -38 15 -55
14 -29 0 -29 0 5 -8z"/>
<path d="M3804 7564 c-18 -14 -18 -15 4 -4 12 6 22 13 22 15 0 8 -5 6 -26 -11z"/>
<path d="M4218 6913 c6 -2 18 -2 25 0 6 3 1 5 -13 5 -14 0 -19 -2 -12 -5z"/>
<path d="M4298 6893 c6 -2 18 -2 25 0 6 3 1 5 -13 5 -14 0 -19 -2 -12 -5z"/>
<path d="M4373 6883 c9 -2 23 -2 30 0 6 3 -1 5 -18 5 -16 0 -22 -2 -12 -5z"/>
<path d="M4458 6863 c7 -3 16 -2 19 1 4 3 -2 6 -13 5 -11 0 -14 -3 -6 -6z"/>
<path d="M4568 6833 c6 -2 18 -2 25 0 6 3 1 5 -13 5 -14 0 -19 -2 -12 -5z"/>
<path d="M4638 6813 c7 -3 16 -2 19 1 4 3 -2 6 -13 5 -11 0 -14 -3 -6 -6z"/>
<path d="M4685 6790 c3 -5 8 -10 11 -10 2 0 4 5 4 10 0 6 -5 10 -11 10 -5 0
-7 -4 -4 -10z"/>
<path d="M2405 6570 c-16 -7 -17 -9 -3 -9 9 -1 20 4 23 9 7 11 7 11 -20 0z"/>
<path d="M1980 6250 c0 -5 -5 -9 -11 -7 -6 1 -18 -9 -27 -23 l-17 -25 33 23
c28 20 42 42 27 42 -3 0 -5 -4 -5 -10z"/>
<path d="M1790 6085 c-41 -41 -76 -79 -78 -85 -2 -6 33 26 78 70 45 45 80 84
78 86 -2 2 -38 -30 -78 -71z"/>
<path d="M1580 5835 c-13 -14 -22 -27 -19 -29 2 -2 14 10 27 25 29 36 24 38
-8 4z"/>
<path d="M3937 5078 c-8 -348 -16 -1230 -12 -1173 2 22 9 303 15 625 6 322 12
642 14 713 1 70 0 127 -4 127 -4 0 -10 -132 -13 -292z"/>
<path d="M3820 5101 c0 -5 5 -13 10 -16 6 -3 10 -2 10 4 0 5 -4 13 -10 16 -5
3 -10 2 -10 -4z"/>
<path d="M3716 5057 c3 -10 9 -15 12 -12 3 3 0 11 -7 18 -10 9 -11 8 -5 -6z"/>
<path d="M3896 5057 c3 -10 9 -15 12 -12 3 3 0 11 -7 18 -10 9 -11 8 -5 -6z"/>
<path d="M3650 5031 c0 -6 4 -13 10 -16 6 -3 7 1 4 9 -7 18 -14 21 -14 7z"/>
<path d="M3822 5010 c7 -10 14 -18 15 -16 6 6 -9 36 -18 36 -5 0 -4 -9 3 -20z"/>
<path d="M3761 4794 c0 -11 3 -14 6 -6 3 7 2 16 -1 19 -3 4 -6 -2 -5 -13z"/>
<path d="M1024 4068 c10 -7 38 -29 61 -48 48 -39 139 -95 170 -106 11 -3 3 5
-17 20 -20 14 -41 26 -47 26 -5 0 -11 4 -13 8 -3 8 -131 93 -158 106 -8 4 -7
1 4 -6z"/>
<path d="M3914 3700 c0 -80 2 -112 3 -72 2 39 2 105 0 145 -1 39 -3 7 -3 -73z"/>
<path d="M6794 3805 c16 -14 26 -28 23 -31 -3 -4 1 -13 9 -22 10 -9 12 -17 5
-21 -6 -4 -2 -21 12 -46 20 -35 22 -50 17 -124 -6 -96 7 -133 31 -90 23 41 16
174 -13 239 -30 65 -73 120 -96 120 -13 0 -9 -7 12 -25z"/>
<path d="M6774 3762 c16 -17 32 -30 34 -27 5 4 -12 22 -43 45 -11 8 -7 0 9
-18z"/>
<path d="M3743 2980 c0 -41 2 -58 4 -37 2 20 2 54 0 75 -2 20 -4 3 -4 -38z"/>
<path d="M3629 1419 c-1 -250 -4 -444 -6 -433 -2 12 -14 30 -25 40 l-21 19 7
-137 c13 -278 60 -556 120 -718 14 -36 28 -74 32 -85 6 -19 7 -19 13 3 7 26
-4 271 -19 412 -5 52 -14 147 -20 210 -5 63 -16 129 -24 145 -29 60 -44 268
-45 653 -1 185 -4 338 -6 341 -3 2 -6 -200 -6 -450z"/>
<path d="M4658 1243 c6 -2 18 -2 25 0 6 3 1 5 -13 5 -14 0 -19 -2 -12 -5z"/>
<path d="M4278 1153 c7 -3 16 -2 19 1 4 3 -2 6 -13 5 -11 0 -14 -3 -6 -6z"/>
<path d="M3942 805 c0 -16 2 -22 5 -12 2 9 2 23 0 30 -3 6 -5 -1 -5 -18z"/>
<path d="M3754 690 c0 -58 1 -81 3 -52 2 28 2 76 0 105 -2 28 -3 5 -3 -53z"/>
<path d="M3933 725 c0 -22 2 -30 4 -17 2 12 2 30 0 40 -3 9 -5 -1 -4 -23z"/>
<path d="M3912 576 c-8 -54 -11 -100 -9 -102 7 -7 30 160 25 182 -2 10 -9 -26
-16 -80z"/>
<path d="M3885 415 c-3 -26 -4 -49 -2 -52 3 -3 9 16 12 42 4 25 5 48 2 51 -2
3 -8 -16 -12 -41z"/>
<path d="M3872 330 c0 -14 2 -19 5 -12 2 6 2 18 0 25 -3 6 -5 1 -5 -13z"/>
<path d="M3856 264 c-4 -20 -5 -38 -3 -40 3 -3 8 11 11 32 4 20 5 38 3 40 -3
3 -8 -11 -11 -32z"/>
</g>
</svg>
